<svg xmlns="http://www.w3.org/2000/svg" xmlns:oryx="http://oryx-editor.org" id="_4259A6EB-C62B-4D00-83E5-8F291AFA42CE" width="660" height="413" xmlns:xlink="http://www.w3.org/1999/xlink" xmlns:svg="http://www.w3.org/2000/svg"><defs><marker id="_CF31E762-DAC2-4B20-B6B6-36A49549F13Dstart" refX="1" refY="5" markerUnits="userSpaceOnUse" markerWidth="17" markerHeight="11" orient="auto" fill="#000000" stroke="#000000"> 	  		<path id="_CF31E762-DAC2-4B20-B6B6-36A49549F13Dconditional" d="M 0 5 L 8 0 L 16 5 L 8 10 L 0 5" fill="white" stroke="#000000" stroke-width="1" display="none"/> 			<path id="_CF31E762-DAC2-4B20-B6B6-36A49549F13Ddefault" d="M 5 0 L 11 10" fill="white" stroke="#000000" stroke-width="1" display="none"/> 	  	</marker><marker id="_CF31E762-DAC2-4B20-B6B6-36A49549F13Dend" refX="15" refY="6" markerUnits="userSpaceOnUse" markerWidth="15" markerHeight="12" orient="auto" fill="#000000" stroke="#000000"> 	  		<path id="_CF31E762-DAC2-4B20-B6B6-36A49549F13Dframe2" d="M 0 1 L 15 6 L 0 11z" fill="#000000" stroke="#000000" stroke-linejoin="round" stroke-width="2"/> 	  	</marker><marker id="_31911D17-01E2-4704-B3B0-1A07895EE7CCstart" refX="1" refY="5" markerUnits="userSpaceOnUse" markerWidth="17" markerHeight="11" orient="auto" fill="#000000" stroke="#000000"> 	  		<path id="_31911D17-01E2-4704-B3B0-1A07895EE7CCconditional" d="M 0 5 L 8 0 L 16 5 L 8 10 L 0 5" fill="white" stroke="#000000" stroke-width="1" display="none"/> 			<path id="_31911D17-01E2-4704-B3B0-1A07895EE7CCdefault" d="M 5 0 L 11 10" fill="white" stroke="#000000" stroke-width="1" display="none"/> 	  	</marker><marker id="_31911D17-01E2-4704-B3B0-1A07895EE7CCend" refX="15" refY="6" markerUnits="userSpaceOnUse" markerWidth="15" markerHeight="12" orient="auto" fill="#000000" stroke="#000000"> 	  		<path id="_31911D17-01E2-4704-B3B0-1A07895EE7CCframe2" d="M 0 1 L 15 6 L 0 11z" fill="#000000" stroke="#000000" stroke-linejoin="round" stroke-width="2"/> 	  	</marker><marker id="_7F267E98-04DD-4A72-9B5F-BA8FE9372DEAstart" refX="1" refY="5" markerUnits="userSpaceOnUse" markerWidth="17" markerHeight="11" orient="auto" fill="#000000" stroke="#000000"> 	  		<path id="_7F267E98-04DD-4A72-9B5F-BA8FE9372DEAconditional" d="M 0 5 L 8 0 L 16 5 L 8 10 L 0 5" fill="white" stroke="#000000" stroke-width="1" display="none"/> 			<path id="_7F267E98-04DD-4A72-9B5F-BA8FE9372DEAdefault" d="M 5 0 L 11 10" fill="white" stroke="#000000" stroke-width="1" display="none"/> 	  	</marker><marker id="_7F267E98-04DD-4A72-9B5F-BA8FE9372DEAend" refX="15" refY="6" markerUnits="userSpaceOnUse" markerWidth="15" markerHeight="12" orient="auto" fill="#000000" stroke="#000000"> 	  		<path id="_7F267E98-04DD-4A72-9B5F-BA8FE9372DEAframe2" d="M 0 1 L 15 6 L 0 11z" fill="#000000" stroke="#000000" stroke-linejoin="round" stroke-width="2"/> 	  	</marker><marker id="_5EB60A14-6A66-4525-B34A-3B08EDBDC4F7start" refX="1" refY="5" markerUnits="userSpaceOnUse" markerWidth="17" markerHeight="11" orient="auto" fill="#000000" stroke="#000000"> 	  		<path id="_5EB60A14-6A66-4525-B34A-3B08EDBDC4F7conditional" d="M 0 5 L 8 0 L 16 5 L 8 10 L 0 5" fill="white" stroke="#000000" stroke-width="1" display="none"/> 			<path id="_5EB60A14-6A66-4525-B34A-3B08EDBDC4F7default" d="M 5 0 L 11 10" fill="white" stroke="#000000" stroke-width="1" display="none"/> 	  	</marker><marker id="_5EB60A14-6A66-4525-B34A-3B08EDBDC4F7end" refX="15" refY="6" markerUnits="userSpaceOnUse" markerWidth="15" markerHeight="12" orient="auto" fill="#000000" stroke="#000000"> 	  		<path id="_5EB60A14-6A66-4525-B34A-3B08EDBDC4F7frame2" d="M 0 1 L 15 6 L 0 11z" fill="#000000" stroke="#000000" stroke-linejoin="round" stroke-width="2"/> 	  	</marker></defs><g stroke="none" font-family="Verdana, sans-serif" font-size-adjust="none" font-style="normal" font-variant="normal" font-weight="normal" line-heigth="normal" font-size="12"><g class="stencils" transform="translate(15, 16)"><g class="me"/><g class="children"><g id="_CF52D313-7674-42C1-97F8-51E1A8E1BA50" bpmn2nodeid="_1ED2D4D1-0E20-4F37-9370-2A163EC0061A"><g class="stencils" transform="translate(130, 210)"><g class="me"><g pointer-events="fill" id="_CF52D313-7674-42C1-97F8-51E1A8E1BA50">        <defs id="_CF52D313-7674-42C1-97F8-51E1A8E1BA50__CF52D313-7674-42C1-97F8-51E1A8E1BA50_5"> 		<radialGradient id="_CF52D313-7674-42C1-97F8-51E1A8E1BA50background" cx="10%" cy="10%" r="100%" fx="10%" fy="10%"> 			<stop offset="0%" stop-color="#ffffff" stop-opacity="1" id="_CF52D313-7674-42C1-97F8-51E1A8E1BA50__CF52D313-7674-42C1-97F8-51E1A8E1BA50_6"/> 			<stop id="_CF52D313-7674-42C1-97F8-51E1A8E1BA50fill_el" offset="100%" stop-color="#9acd32" stop-opacity="1"/> 		</radialGradient> 	</defs> 	     <circle id="_CF52D313-7674-42C1-97F8-51E1A8E1BA50bg_frame" cx="15" cy="15" r="15" stroke="#000000" fill="url(#_CF52D313-7674-42C1-97F8-51E1A8E1BA50background) white" stroke-width="1" style="stroke-dasharray: 5.5, 3"/>      <circle id="_CF52D313-7674-42C1-97F8-51E1A8E1BA50frame" cx="15" cy="15" r="15" stroke="#000000" fill="none" stroke-width="1" display="inherit"/>  	<text font-size="11" id="_CF52D313-7674-42C1-97F8-51E1A8E1BA50text_name" x="15" y="32" oryx:align="top center" stroke="black" stroke-width="0pt" letter-spacing="-0.01px" fill="#000000" text-anchor="middle" transform="rotate(0 15 32)" visibility="inherit" oryx:fontSize="11"><tspan x="15" y="32" dy="11">StartProcess</tspan></text>   </g></g><g class="children" style="overflow:hidden"/><g class="edge"/></g><g class="controls"><g class="dockers"/><g class="magnets" transform="translate(130, 210)"><g pointer-events="all" display="none" transform="translate(7, 7)"><circle cx="8" cy="8" r="4" stroke="none" fill="red" fill-opacity="0.3"/></g></g></g></g><g id="_02E1CC8C-BBD1-4E3A-8F28-C9EDA284326D" bpmn2nodeid="_CCCAA520-3132-494A-B34C-D5FE54BE773D"><g class="stencils" transform="translate(271, 203)"><g class="me"><g pointer-events="fill" oryx:minimumSize="80 60" id="_02E1CC8C-BBD1-4E3A-8F28-C9EDA284326D">   	<defs id="_02E1CC8C-BBD1-4E3A-8F28-C9EDA284326D__02E1CC8C-BBD1-4E3A-8F28-C9EDA284326D_17"> 		<radialGradient id="_02E1CC8C-BBD1-4E3A-8F28-C9EDA284326Dbackground" cx="10%" cy="10%" r="100%" fx="10%" fy="10%"> 			<stop offset="0%" stop-color="#ffffff" stop-opacity="1" id="_02E1CC8C-BBD1-4E3A-8F28-C9EDA284326D__02E1CC8C-BBD1-4E3A-8F28-C9EDA284326D_18"/> 			<stop id="_02E1CC8C-BBD1-4E3A-8F28-C9EDA284326Dfill_el" offset="100%" stop-color="#fafad2" stop-opacity="1"/> 		</radialGradient> 	</defs> 	<rect id="_02E1CC8C-BBD1-4E3A-8F28-C9EDA284326Dtext_frame" oryx:anchors="bottom top right left" x="1" y="1" width="104" height="59" rx="10" ry="10" stroke="none" stroke-width="0" fill="none"/> 	<rect id="_02E1CC8C-BBD1-4E3A-8F28-C9EDA284326Dbg_frame" oryx:anchors="bottom top right left" x="0" y="0" width="110" height="60" rx="10" ry="10" stroke="#000000" stroke-width="1" fill="url(#_02E1CC8C-BBD1-4E3A-8F28-C9EDA284326Dbackground) #ffffcc"/> 	<rect id="_02E1CC8C-BBD1-4E3A-8F28-C9EDA284326Dframe" oryx:resize="vertical horizontal" oryx:anchors="bottom top right left" x="0" y="0" width="110" height="60" rx="10" ry="10" stroke="#000000" stroke-width="4" fill="none"/> 	<rect id="_02E1CC8C-BBD1-4E3A-8F28-C9EDA284326Dframe2" oryx:anchors="top bottom left right" oryx:resize="vertical horizontal" x="2.5" y="2.5" width="105" height="55" rx="8" ry="8" stroke="#000000" stroke-width="1" fill="none"/>     	<text font-size="12" id="_02E1CC8C-BBD1-4E3A-8F28-C9EDA284326Dtext_name" x="55.00000000000001" y="30" oryx:align="middle center" oryx:fittoelem="text_frame" stroke="black" stroke-width="0pt" letter-spacing="-0.01px" fill="#000000" text-anchor="middle" transform="rotate(0 55.00000000000001 30)" visibility="inherit" oryx:fontSize="12"><tspan x="55.00000000000001" y="30" dy="5" id="ext-gen954">Call Activity 1</tspan></text>          <a id="_02E1CC8C-BBD1-4E3A-8F28-C9EDA284326Dpimg" onclick="ORYX.EDITOR._pluginFacade.raiseEvent({                                                                          type 		: ORYX.CONFIG.EVENT_NOTIFICATION_SHOW,                                                                                    ntype		: 'error',                                                                                                                msg         : 'Unable to open called process.',                                                                                        title       : ''                                                                                                                   });">	 	<g id="_02E1CC8C-BBD1-4E3A-8F28-C9EDA284326Db" oryx:anchors="bottom"> 		<rect id="_02E1CC8C-BBD1-4E3A-8F28-C9EDA284326Dframe3" oryx:anchors="bottom" x="49.10000000000001" y="46" width="14" height="14" fill="none" stroke="#000000" stroke-width="1"/> 		<path id="_02E1CC8C-BBD1-4E3A-8F28-C9EDA284326Dframe4" oryx:anchors="bottom" fill="none" stroke="#000000" d=" M56.1 48  v10  M51.1 53  h10 " stroke-width="1"/> 	</g> 	</a> 	<g id="_02E1CC8C-BBD1-4E3A-8F28-C9EDA284326Dnone"/> 	undefined 	  	undefined 	undefined 	 	 	undefined 	undefined   </g></g><g class="children" style="overflow:hidden"/><g class="edge"/></g><g class="controls"><g class="dockers"/><g class="magnets" transform="translate(271, 203)"><g pointer-events="all" display="none" transform="translate(-7, 7)"><circle cx="8" cy="8" r="4" stroke="none" fill="red" fill-opacity="0.3"/></g><g pointer-events="all" display="none" transform="translate(-7, 22)"><circle cx="8" cy="8" r="4" stroke="none" fill="red" fill-opacity="0.3"/></g><g pointer-events="all" display="none" transform="translate(-7, 37)"><circle cx="8" cy="8" r="4" stroke="none" fill="red" fill-opacity="0.3"/></g><g pointer-events="all" display="none" transform="translate(19.500000000000004, 51)"><circle cx="8" cy="8" r="4" stroke="none" fill="red" fill-opacity="0.3"/></g><g pointer-events="all" display="none" transform="translate(47.00000000000001, 51)"><circle cx="8" cy="8" r="4" stroke="none" fill="red" fill-opacity="0.3"/></g><g pointer-events="all" display="none" transform="translate(74.5, 51)"><circle cx="8" cy="8" r="4" stroke="none" fill="red" fill-opacity="0.3"/></g><g pointer-events="all" display="none" transform="translate(101, 7)"><circle cx="8" cy="8" r="4" stroke="none" fill="red" fill-opacity="0.3"/></g><g pointer-events="all" display="none" transform="translate(101, 22)"><circle cx="8" cy="8" r="4" stroke="none" fill="red" fill-opacity="0.3"/></g><g pointer-events="all" display="none" transform="translate(101, 37)"><circle cx="8" cy="8" r="4" stroke="none" fill="red" fill-opacity="0.3"/></g><g pointer-events="all" display="none" transform="translate(19.500000000000004, -7)"><circle cx="8" cy="8" r="4" stroke="none" fill="red" fill-opacity="0.3"/></g><g pointer-events="all" display="none" transform="translate(47.00000000000001, -7)"><circle cx="8" cy="8" r="4" stroke="none" fill="red" fill-opacity="0.3"/></g><g pointer-events="all" display="none" transform="translate(74.5, -7)"><circle cx="8" cy="8" r="4" stroke="none" fill="red" fill-opacity="0.3"/></g><g pointer-events="all" display="none" transform="translate(47.00000000000001, 22)"><circle cx="8" cy="8" r="4" stroke="none" fill="red" fill-opacity="0.3"/></g></g></g></g><g id="_D6ED8E08-48DC-44AB-830F-D0D8788DB5DC" bpmn2nodeid="_864FA1F0-35F1-4C2E-8BB8-7AFCC9178043"><g class="stencils" transform="translate(449, 210)"><g class="me"><g pointer-events="fill" id="_D6ED8E08-48DC-44AB-830F-D0D8788DB5DC">      <defs id="_D6ED8E08-48DC-44AB-830F-D0D8788DB5DC__D6ED8E08-48DC-44AB-830F-D0D8788DB5DC_5"> 		<radialGradient id="_D6ED8E08-48DC-44AB-830F-D0D8788DB5DCbackground" cx="10%" cy="10%" r="100%" fx="10%" fy="10%"> 			<stop offset="0%" stop-color="#ffffff" stop-opacity="1" id="_D6ED8E08-48DC-44AB-830F-D0D8788DB5DC__D6ED8E08-48DC-44AB-830F-D0D8788DB5DC_6"/> 			<stop id="_D6ED8E08-48DC-44AB-830F-D0D8788DB5DCfill_el" offset="100%" stop-color="#ff6347" stop-opacity="1"/> 		</radialGradient> 	</defs> 	     <circle id="_D6ED8E08-48DC-44AB-830F-D0D8788DB5DCbg_frame" cx="14" cy="14" r="14" stroke="#000000" fill="url(#_D6ED8E08-48DC-44AB-830F-D0D8788DB5DCbackground) white" stroke-width="3"/> 	<text font-size="11" id="_D6ED8E08-48DC-44AB-830F-D0D8788DB5DCtext_name" x="14" y="30" oryx:align="top center" stroke="black" stroke-width="0pt" letter-spacing="-0.01px" fill="#000000" text-anchor="middle" transform="rotate(0 14 30)" visibility="inherit" oryx:fontSize="11"><tspan x="14" y="30" dy="11">End1</tspan></text>   </g></g><g class="children" style="overflow:hidden"/><g class="edge"/></g><g class="controls"><g class="dockers"/><g class="magnets" transform="translate(449, 210)"><g pointer-events="all" display="none" transform="translate(6, 6)"><circle cx="8" cy="8" r="4" stroke="none" fill="red" fill-opacity="0.3"/></g></g></g></g><g id="_295A4A01-498C-4372-B0F4-301660BE5585" bpmn2nodeid="_94910B66-0972-4141-9A11-FC558AC499A2"><g class="stencils" transform="translate(592, 325)"><g class="me"><g pointer-events="fill" id="_295A4A01-498C-4372-B0F4-301660BE5585">       <defs id="_295A4A01-498C-4372-B0F4-301660BE5585__295A4A01-498C-4372-B0F4-301660BE5585_5"> 		<radialGradient id="_295A4A01-498C-4372-B0F4-301660BE5585background" cx="10%" cy="10%" r="100%" fx="10%" fy="10%"> 			<stop offset="0%" stop-color="#ffffff" stop-opacity="1" id="_295A4A01-498C-4372-B0F4-301660BE5585__295A4A01-498C-4372-B0F4-301660BE5585_6"/> 			<stop id="_295A4A01-498C-4372-B0F4-301660BE5585fill_el" offset="100%" stop-color="#ff6347" stop-opacity="1"/> 		</radialGradient> 		<radialGradient id="_295A4A01-498C-4372-B0F4-301660BE5585borderbackground" cx="10%" cy="10%" r="100%" fx="10%" fy="10%"> 			<stop offset="0%" stop-color="#ffffff" stop-opacity="1" id="_295A4A01-498C-4372-B0F4-301660BE5585__295A4A01-498C-4372-B0F4-301660BE5585_7"/> 			<stop id="_295A4A01-498C-4372-B0F4-301660BE5585fill_border" offset="100%" stop-color="#000000" stop-opacity="1" stroke="#000000"/> 		</radialGradient> 	</defs> 	     <circle id="_295A4A01-498C-4372-B0F4-301660BE5585bg_frame" cx="14" cy="14" r="14" stroke="#000000" fill="url(#_295A4A01-498C-4372-B0F4-301660BE5585background) white" stroke-width="3"/>          <circle id="_295A4A01-498C-4372-B0F4-301660BE5585frame" cx="14" cy="14" r="9" stroke="#000000" fill="url(#_295A4A01-498C-4372-B0F4-301660BE5585borderbackground)" stroke-width="1"/> 	<text font-size="11" id="_295A4A01-498C-4372-B0F4-301660BE5585text_name" x="14" y="30" oryx:align="top center" stroke="black" stroke-width="0pt" letter-spacing="-0.01px" fill="#000000" text-anchor="middle" transform="rotate(0 14 30)" visibility="inherit" oryx:fontSize="11"><tspan x="14" y="30" dy="11">End2</tspan></text>   </g></g><g class="children" style="overflow:hidden"/><g class="edge"/></g><g class="controls"><g class="dockers"/><g class="magnets" transform="translate(592, 325)"><g pointer-events="all" display="none" transform="translate(6, 6)"><circle cx="8" cy="8" r="4" stroke="none" fill="red" fill-opacity="0.3"/></g></g></g></g><g id="_515187E2-BBFD-4648-871B-E7497A137422" bpmn2nodeid="_C96CD75B-F7DB-456A-A524-7ACC0F735FCC"><g class="stencils" transform="translate(271, 318)"><g class="me"><g pointer-events="fill" oryx:minimumSize="50 40" id="_515187E2-BBFD-4648-871B-E7497A137422">   	<defs id="_515187E2-BBFD-4648-871B-E7497A137422__515187E2-BBFD-4648-871B-E7497A137422_17"> 		<radialGradient id="_515187E2-BBFD-4648-871B-E7497A137422background" cx="10%" cy="10%" r="100%" fx="10%" fy="10%"> 			<stop offset="0%" stop-color="#ffffff" stop-opacity="1" id="_515187E2-BBFD-4648-871B-E7497A137422__515187E2-BBFD-4648-871B-E7497A137422_18"/> 			<stop id="_515187E2-BBFD-4648-871B-E7497A137422fill_el" offset="100%" stop-color="#fafad2" stop-opacity="1"/> 		</radialGradient> 		<radialGradient id="_515187E2-BBFD-4648-871B-E7497A137422borderbackground" cx="10%" cy="10%" r="100%" fx="10%" fy="10%"> 			<stop offset="0%" stop-color="#ffffff" stop-opacity="1" id="_515187E2-BBFD-4648-871B-E7497A137422__515187E2-BBFD-4648-871B-E7497A137422_19"/> 			<stop id="_515187E2-BBFD-4648-871B-E7497A137422fill_border" offset="100%" stop-color="#000000" stop-opacity="1" stroke="#000000"/> 		</radialGradient> 	</defs> 	 	<rect id="_515187E2-BBFD-4648-871B-E7497A137422text_frame" oryx:anchors="bottom top right left" x="1" y="1" width="104" height="49" rx="10" ry="10" stroke="none" stroke-width="0" fill="none"/> 	<rect id="_515187E2-BBFD-4648-871B-E7497A137422bg_frame" oryx:resize="vertical horizontal" x="0" y="0" width="110.00000000000001" height="50" rx="10" ry="10" stroke="#000000" stroke-width="1" fill="url(#_515187E2-BBFD-4648-871B-E7497A137422background) #ffffcc"/> 		<text font-size="12" id="_515187E2-BBFD-4648-871B-E7497A137422text_name" x="55.00000000000001" y="25" oryx:align="middle center" oryx:fittoelem="text_frame" stroke="black" text-anchor="middle" stroke-width="0pt" letter-spacing="-0.01px" fill="#000000" transform="rotate(0 55.00000000000001 25)" visibility="inherit" oryx:fontSize="12"><tspan x="55.00000000000001" y="25" dy="5" id="ext-gen955">Task Parent</tspan></text>     <g id="_515187E2-BBFD-4648-871B-E7497A137422manualTask" transform="scale(0.7,0.7) translate(8,8)" display="none">     	<path oryx:anchors="top left" id="_515187E2-BBFD-4648-871B-E7497A137422frame" style="opacity:1;fill:none;fill-opacity:1;stroke-width:1" d="M0.5,3.751l4.083-3.25c0,0,11.166,0.083,12.083,0.083s-2.417,2.917-1.5,2.917     s11.667,0,12.584,0c1.166,1.708-0.168,3.167-0.834,3.667s0.875,1.917-1,4.417c-0.75,0.25,0.75,1.875-1.333,3.333     c-1.167,0.583,0.583,1.542-1.25,2.833c-1.167,0-20.833,0.083-20.833,0.083l-2-1.333V3.751z" stroke="#000000"/> 		<path id="_515187E2-BBFD-4648-871B-E7497A137422frame2" oryx:anchors="top left" style="opacity:1;fill:none;stroke-width:2" d="M 13.5 7 L 27 7" stroke="#000000"/> 		<path id="_515187E2-BBFD-4648-871B-E7497A137422frame3" oryx:anchors="top left" style="opacity:1;fill:none;stroke-width:2" d="M 13.5 11 L 26 11" stroke="#000000"/> 		<path id="_515187E2-BBFD-4648-871B-E7497A137422frame4" oryx:anchors="top left" style="opacity:1;fill:none;stroke-width:1.5" d="M 14 14.5 L 25 14.5" stroke="#000000"/> 		<path id="_515187E2-BBFD-4648-871B-E7497A137422frame5" oryx:anchors="top left" style="opacity:1;fill:none;stroke-width:1.5" d="M 8.2 3.1 L 15 3.1" stroke="#000000"/> 	</g> 	 	<g id="_515187E2-BBFD-4648-871B-E7497A137422businessRuleTask" transform="scale(0.7,0.7) translate(8,8)" display="none"> 		<rect id="_515187E2-BBFD-4648-871B-E7497A137422frame6" oryx:anchors="top left" x="0" y="0" width="22" height="4" style="opacity:1;fill:#B3B1B3;fill-opacity:1;" stroke="#000000"/> 		<rect id="_515187E2-BBFD-4648-871B-E7497A137422frame7" oryx:anchors="top left" x="0" y="4" style="opacity:1;fill:none;" width="22" height="12" stroke="#000000"/> 		<path id="_515187E2-BBFD-4648-871B-E7497A137422frame8" oryx:anchors="top left" style="opacity:1;fill:none;" d="M 0 10 L 22 10" stroke="#000000"/> 		<path id="_515187E2-BBFD-4648-871B-E7497A137422frame9" oryx:anchors="top left" style="opacity:1; fill:none;" d="M 7 4 L 7 16" stroke="#000000"/> 	</g> 	 	<g id="_515187E2-BBFD-4648-871B-E7497A137422scriptTask" transform="scale(0.7,0.7) translate(8,8)" display="inherit"> 		<path oryx:anchors="top left" id="_515187E2-BBFD-4648-871B-E7497A137422frame10" style="opacity:1;fill:none;" stroke="#000000" d="M6.402,0.5h14.5c0,0-5.833,2.833-5.833,5.583s4.417,6,4.417,9.167    s-4.167,5.083-4.167,5.083H0.235c0,0,5-2.667,5-5s-4.583-6.75-4.583-9.25S6.402,0.5,6.402,0.5z"/> 		<path oryx:anchors="top left" id="_515187E2-BBFD-4648-871B-E7497A137422frame11" style="opacity:1;fill:none;stroke-width:1.5" d="M 3.5 4.5 L 13.5 4.5" stroke="#000000"/> 		<path oryx:anchors="top left" id="_515187E2-BBFD-4648-871B-E7497A137422frame12" style="opacity:1;fill:none;stroke-width:1.5" d="M 3.8 8.5 L 13.8 8.5" stroke="#000000"/> 		<path oryx:anchors="top left" id="_515187E2-BBFD-4648-871B-E7497A137422frame13" style="opacity:1;fill:none;stroke-width:1.5" d="M 6.3 12.5 L 16.3 12.5" stroke="#000000"/> 		<path oryx:anchors="top left" id="_515187E2-BBFD-4648-871B-E7497A137422frame14" style="opacity:1;fill:none;stroke-width:1.5" d="M 6.5 16.5 L 16.5 16.5" stroke="#000000"/> 	</g> 	 	<g id="_515187E2-BBFD-4648-871B-E7497A137422userTask" transform="scale(0.7,0.7) translate(8,8)" display="none"> 		<path id="_515187E2-BBFD-4648-871B-E7497A137422frame15" oryx:anchors="top left" style="opacity:1;fill:#F4F6F7" stroke="#000000" d="M0.585,24.167h24.083v-7.833c0,0-2.333-3.917-7.083-5.167h-9.25    c-4.417,1.333-7.833,5.75-7.833,5.75L0.585,24.167z"/> 		<path id="_515187E2-BBFD-4648-871B-E7497A137422frame16" oryx:anchors="top left" style="opacity:1;fill:none" d="M 6 20 L 6 24" stroke="#000000"/> 		<path id="_515187E2-BBFD-4648-871B-E7497A137422frame17" oryx:anchors="top left" style="opacity:1;fill:none" d="M 20 20 L 20 24" stroke="#000000"/> 		<circle id="_515187E2-BBFD-4648-871B-E7497A137422frame18" oryx:anchors="top left" fill="black" cx="13.002" cy="5.916" r="5.417" stroke="#000000"/> 		<path id="_515187E2-BBFD-4648-871B-E7497A137422frame19" oryx:anchors="top left" style="opacity:1;fill:#F0EFF0;" stroke="#000000" d="M8.043,7.083c0,0,2.814-2.426,5.376-1.807s4.624-0.693,4.624-0.693    c0.25,1.688,0.042,3.75-1.458,5.584c0,0,1.083,0.75,1.083,1.5s0.125,1.875-1,3s-5.5,1.25-6.75,0S8.668,12.834,8.668,12    s0.583-1.25,1.25-1.917C8.835,9.5,7.419,7.708,8.043,7.083z"/> 	</g> 	 	<g id="_515187E2-BBFD-4648-871B-E7497A137422serviceTask" transform="scale(0.7,0.7) translate(8,8)" display="none"> 		<polygon oryx:anchors="top left" id="_515187E2-BBFD-4648-871B-E7497A137422frame20" style="opacity:1;fill:#ffffff" stroke="#000000" points="15.392,5.064 17.954,2.502 20.347,4.895 17.786,7.455     18.729,9.732 22.353,9.732 22.353,13.115 18.731,13.115 17.788,15.392 20.351,17.955 17.958,20.347 15.397,17.786 13.12,18.729     13.12,22.353 9.737,22.353 9.737,18.731 7.46,17.788 4.897,20.35 2.506,17.958 5.066,15.397 4.124,13.12 0.5,13.12 0.5,9.737     4.121,9.737 5.065,7.461 2.503,4.898 4.895,2.506 7.455,5.066 9.732,4.125 9.732,0.5 13.116,0.5 13.116,4.121 "/> 		<circle oryx:anchors="top left" id="_515187E2-BBFD-4648-871B-E7497A137422frame21" style="opacity:1;fill:none" stroke="#000000" cx="11.427" cy="11.426" r="3.714"/> 		<polygon oryx:anchors="top left" id="_515187E2-BBFD-4648-871B-E7497A137422frame22" style="opacity:1;fill:#ffffff" stroke="#000000" points="21.392,11.064 23.954,8.502 26.347,10.895 23.786,13.455     24.729,15.732 28.353,15.732 28.353,19.115 24.731,19.115 23.788,21.392 26.351,23.955 23.958,26.347 21.397,23.786 19.12,24.729     19.12,28.353 15.737,28.353 15.737,24.731 13.46,23.788 10.897,26.35 8.506,23.958 11.066,21.397 10.124,19.12 6.5,19.12     6.5,15.737 10.121,15.737 11.065,13.461 8.503,10.898 10.895,8.506 13.455,11.066 15.732,10.125 15.732,6.5 19.116,6.5     19.116,10.121 "/> 		<circle oryx:anchors="top left" id="_515187E2-BBFD-4648-871B-E7497A137422frame23" style="opacity:1;fill:none;" stroke="#000000" cx="17.427" cy="17.426" r="3.714"/> 	</g> 	 	<g id="_515187E2-BBFD-4648-871B-E7497A137422sendTask" display="none"> 		<path id="_515187E2-BBFD-4648-871B-E7497A137422stframe24" oryx:anchors="left top" stroke="#FFFFFF" fill="black" stroke-width="1" d="M8,11 L8,21 L24,21 L24,11 L16,17z"/> 		<path id="_515187E2-BBFD-4648-871B-E7497A137422stframe25" oryx:anchors="left top" stroke="#FFFFFF" fill="black" stroke-width="1" d="M7,10 L16,17 L25 10z"/> 	</g> 	 	<g id="_515187E2-BBFD-4648-871B-E7497A137422receiveTask" display="none"> 		<path id="_515187E2-BBFD-4648-871B-E7497A137422frame26" oryx:anchors="left top" stroke="#000000" fill="none" stroke-width="1" d="M8,11 L8,21 L24,21 L24,11z M8,11 L16,17 L24,11"/> 	</g> 	 	<g id="_515187E2-BBFD-4648-871B-E7497A137422none" display="none"/>  	<g id="_515187E2-BBFD-4648-871B-E7497A137422sequential" display="none">         <path oryx:anchors="bottom" fill="none" stroke="#000000" stroke-width="2" d=" M51.1 46  h10  M51.1 42  h10  M51.1 38  h10 " id="_515187E2-BBFD-4648-871B-E7497A137422__515187E2-BBFD-4648-871B-E7497A137422_20"/>     </g>   </g></g><g class="children" style="overflow:hidden"/><g class="edge"/></g><g class="controls"><g class="dockers"/><g class="magnets" transform="translate(271, 318)"><g pointer-events="all" display="none" transform="translate(-7, 4.5)"><circle cx="8" cy="8" r="4" stroke="none" fill="red" fill-opacity="0.3"/></g><g pointer-events="all" display="none" transform="translate(-7, 17)"><circle cx="8" cy="8" r="4" stroke="none" fill="red" fill-opacity="0.3"/></g><g pointer-events="all" display="none" transform="translate(-7, 29.5)"><circle cx="8" cy="8" r="4" stroke="none" fill="red" fill-opacity="0.3"/></g><g pointer-events="all" display="none" transform="translate(19.500000000000004, 41)"><circle cx="8" cy="8" r="4" stroke="none" fill="red" fill-opacity="0.3"/></g><g pointer-events="all" display="none" transform="translate(47.00000000000001, 41)"><circle cx="8" cy="8" r="4" stroke="none" fill="red" fill-opacity="0.3"/></g><g pointer-events="all" display="none" transform="translate(74.5, 41)"><circle cx="8" cy="8" r="4" stroke="none" fill="red" fill-opacity="0.3"/></g><g pointer-events="all" display="none" transform="translate(101, 4.5)"><circle cx="8" cy="8" r="4" stroke="none" fill="red" fill-opacity="0.3"/></g><g pointer-events="all" display="none" transform="translate(101, 17)"><circle cx="8" cy="8" r="4" stroke="none" fill="red" fill-opacity="0.3"/></g><g pointer-events="all" display="none" transform="translate(101, 29.5)"><circle cx="8" cy="8" r="4" stroke="none" fill="red" fill-opacity="0.3"/></g><g pointer-events="all" display="none" transform="translate(19.500000000000004, -7)"><circle cx="8" cy="8" r="4" stroke="none" fill="red" fill-opacity="0.3"/></g><g pointer-events="all" display="none" transform="translate(47.00000000000001, -7)"><circle cx="8" cy="8" r="4" stroke="none" fill="red" fill-opacity="0.3"/></g><g pointer-events="all" display="none" transform="translate(74.5, -7)"><circle cx="8" cy="8" r="4" stroke="none" fill="red" fill-opacity="0.3"/></g><g pointer-events="all" display="none" transform="translate(47.00000000000001, 17)"><circle cx="8" cy="8" r="4" stroke="none" fill="red" fill-opacity="0.3"/></g></g></g></g><g id="_1B002EF6-BBC2-4077-B540-600974823B73" bpmn2nodeid="_FCCDEA75-7CDE-4570-B026-0BEFFF9E2A7E"><g class="stencils" transform="translate(255.36178790979142, 204.90865597877445)"><g class="me"><g pointer-events="fill" id="_1B002EF6-BBC2-4077-B540-600974823B73">        <defs id="_1B002EF6-BBC2-4077-B540-600974823B73__1B002EF6-BBC2-4077-B540-600974823B73_6"> 		<radialGradient id="_1B002EF6-BBC2-4077-B540-600974823B73background" cx="10%" cy="10%" r="100%" fx="10%" fy="10%"> 			<stop offset="0%" stop-color="#ffffff" stop-opacity="1" id="_1B002EF6-BBC2-4077-B540-600974823B73__1B002EF6-BBC2-4077-B540-600974823B73_7"/> 			<stop id="_1B002EF6-BBC2-4077-B540-600974823B73fill_el" offset="100%" stop-color="#f5deb3" stop-opacity="1"/> 		</radialGradient> 	</defs> 	     <circle id="_1B002EF6-BBC2-4077-B540-600974823B73bg_frame" cx="15" cy="15" r="15" stroke="#a0522d" fill="url(#_1B002EF6-BBC2-4077-B540-600974823B73background) white" stroke-width="1"/>     <circle id="_1B002EF6-BBC2-4077-B540-600974823B73frame" cx="15" cy="15" r="12" stroke="#a0522d" fill="none" stroke-width="1"/>          <path id="_1B002EF6-BBC2-4077-B540-600974823B73frame2" stroke="#a0522d" style="fill:none;stroke-width:1.5;stroke-linecap:butt;stroke-linejoin:miter;stroke-miterlimit:10" d=" M21.820839 10.171502  L18.36734 23.58992  L12.541380000000002 13.281818999999999  L8.338651200000001 19.071607  L12.048949000000002 5.832305699999999  L17.996148000000005 15.132659  L21.820839 10.171502  z"/> 	<text font-size="11" id="_1B002EF6-BBC2-4077-B540-600974823B73text_name" x="15" y="32" oryx:align="top center" stroke="black" stroke-width="0pt" letter-spacing="-0.01px" fill="#000000" text-anchor="middle" transform="rotate(0 15 32)" visibility="inherit" oryx:fontSize="11"><tspan x="15" y="32" dy="11">Boundary event</tspan></text>   </g></g><g class="children" style="overflow:hidden"/><g class="edge"/></g><g class="controls"><g class="dockers"/><g class="magnets" transform="translate(255.36178790979142, 204.90865597877445)"><g pointer-events="all" display="none" transform="translate(7, 7)"><circle cx="8" cy="8" r="4" stroke="none" fill="red" fill-opacity="0.3"/></g></g></g></g></g><g class="edge"><g id="_CF31E762-DAC2-4B20-B6B6-36A49549F13D" bpmn2nodeid="_7B26B3CE-B95F-4678-ADC0-415346489536"><g class="stencils"><g class="me"><g pointer-events="painted" bpmn2nodeid="_983F4EC3-C058-4FBC-8902-000CE73E86A1"><path id="_CF31E762-DAC2-4B20-B6B6-36A49549F13D_1" d="M160.1396496576362 225.66915578597286L270.5595690923638 230.54959421402714 " stroke="#000000" fill="none" stroke-width="2" stroke-linecap="round" stroke-linejoin="round" marker-start="url(#_CF31E762-DAC2-4B20-B6B6-36A49549F13Dstart)" marker-end="url(#_CF31E762-DAC2-4B20-B6B6-36A49549F13Dend)"/></g><text id="_CF31E762-DAC2-4B20-B6B6-36A49549F13Dtext_name" font-size="12" x="174.1396496576362" y="211.66915578597286" oryx:edgePosition="startTop" stroke-width="0pt" letter-spacing="-0.01px" fill="#000000" text-anchor="start" transform="rotate(2.5307630176354223 160.1396496576362 225.66915578597286)" visibility="inherit" oryx:fontSize="12"/></g><g class="children" style="overflow:hidden"/><g class="edge"/></g><g class="controls"><g class="dockers"/><g class="magnets"/></g></g><g id="_31911D17-01E2-4704-B3B0-1A07895EE7CC" bpmn2nodeid="_E99011AA-0C5B-4797-A5E5-A7F94FBD37D8"><g class="stencils"><g class="me"><g pointer-events="painted" bpmn2nodeid="_B6276388-0C96-4EBB-BCD0-0ABB5938B998"><path id="_31911D17-01E2-4704-B3B0-1A07895EE7CC_1" d="M381.583786645799 229.34851036633438L448.088088354201 224.97961463366562 " stroke="#000000" fill="none" stroke-width="2" stroke-linecap="round" stroke-linejoin="round" marker-start="url(#_31911D17-01E2-4704-B3B0-1A07895EE7CCstart)" marker-end="url(#_31911D17-01E2-4704-B3B0-1A07895EE7CCend)"/></g><text id="_31911D17-01E2-4704-B3B0-1A07895EE7CCtext_name" font-size="12" x="395.583786645799" y="215.34851036633438" oryx:edgePosition="startTop" stroke-width="0pt" letter-spacing="-0.01px" fill="#000000" text-anchor="start" transform="rotate(356.241444314528 381.583786645799 229.34851036633438)" visibility="inherit" oryx:fontSize="12"/></g><g class="children" style="overflow:hidden"/><g class="edge"/></g><g class="controls"><g class="dockers"/><g class="magnets"/></g></g><g id="_7F267E98-04DD-4A72-9B5F-BA8FE9372DEA" bpmn2nodeid="_4D14F4DB-35F7-4F7A-9E72-1EC973F66A57"><g class="stencils"><g class="me"><g pointer-events="painted" bpmn2nodeid="_B6A690A7-BB89-45E5-8786-E523EAA78FBB"><path id="_7F267E98-04DD-4A72-9B5F-BA8FE9372DEA_1" d="M381.6873979747995 342.20446574321716L591.8751020252005 339.20178425678284 " stroke="#000000" fill="none" stroke-width="2" stroke-linecap="round" stroke-linejoin="round" marker-start="url(#_7F267E98-04DD-4A72-9B5F-BA8FE9372DEAstart)" marker-end="url(#_7F267E98-04DD-4A72-9B5F-BA8FE9372DEAend)"/></g><text id="_7F267E98-04DD-4A72-9B5F-BA8FE9372DEAtext_name" font-size="12" x="395.6873979747995" y="328.20446574321716" oryx:edgePosition="startTop" stroke-width="0pt" letter-spacing="-0.01px" fill="#000000" text-anchor="start" transform="rotate(359.18154453831136 381.6873979747995 342.20446574321716)" visibility="inherit" oryx:fontSize="12"/></g><g class="children" style="overflow:hidden"/><g class="edge"/></g><g class="controls"><g class="dockers"/><g class="magnets"/></g></g><g id="_5EB60A14-6A66-4525-B34A-3B08EDBDC4F7" bpmn2nodeid="_224BDBC2-5557-4548-8A47-61677E45A946"><g class="stencils"><g class="me"><g pointer-events="painted" bpmn2nodeid="_A760FFA0-157F-4E52-A985-22BEF67EEB92"><path id="_5EB60A14-6A66-4525-B34A-3B08EDBDC4F7_1" d="M276.8591027242192 234.2830074000647L314.5039395680926 317.56666063930277 " stroke="#000000" fill="none" stroke-width="2" stroke-linecap="round" stroke-linejoin="round" marker-start="url(#_5EB60A14-6A66-4525-B34A-3B08EDBDC4F7start)" marker-end="url(#_5EB60A14-6A66-4525-B34A-3B08EDBDC4F7end)"/></g><text id="_5EB60A14-6A66-4525-B34A-3B08EDBDC4F7text_name" font-size="12" x="290.8591027242192" y="220.2830074000647" oryx:edgePosition="startTop" stroke-width="0pt" letter-spacing="-0.01px" fill="#000000" text-anchor="start" transform="rotate(65.67667424098721 276.8591027242192 234.2830074000647)" visibility="inherit" oryx:fontSize="12"/></g><g class="children" style="overflow:hidden"/><g class="edge"/></g><g class="controls"><g class="dockers"/><g class="magnets"/></g></g></g><text id="_DFA6BABE-9B7C-4B38-B2E5-2E94FF4AE394" style="stroke-width:1;fill:rgb(177,194,214);font-family:arial;font-weight:bold" font-size="12" onclick="ORYX.Plugins.CanvasTitle.openTextualAnalysis()" onmouseover="ORYX.Plugins.CanvasTitle.addToolTip('_DFA6BABE-9B7C-4B38-B2E5-2E94FF4AE394')" transform="translate(10, 20)">Parent process v.1 (ParentProcess)</text><text id="_DFA6BABE-9B7C-4B38-B2E5-2E94FF4AE394" style="stroke-width:1;fill:rgb(177,194,214);font-family:arial;font-weight:bold" font-size="12" onclick="ORYX.Plugins.CanvasTitle.openTextualAnalysis()" onmouseover="ORYX.Plugins.CanvasTitle.addToolTip('_DFA6BABE-9B7C-4B38-B2E5-2E94FF4AE394')" transform="translate(10, 20)">Parent process v.1 (ParentProcess)</text></g></g></svg>