<svg xmlns="http://www.w3.org/2000/svg" xmlns:oryx="http://oryx-editor.org" id="_734BB6D8-A75E-4F06-B86E-C1916B01B778" width="660" height="409" xmlns:xlink="http://www.w3.org/1999/xlink" xmlns:svg="http://www.w3.org/2000/svg"><defs><marker id="_DBD64AF7-0453-43A6-B731-35636294E57Astart" refX="1" refY="5" markerUnits="userSpaceOnUse" markerWidth="17" markerHeight="11" orient="auto" fill="#000000" stroke="#000000"> 	  		<path id="_DBD64AF7-0453-43A6-B731-35636294E57Aconditional" d="M 0 5 L 8 0 L 16 5 L 8 10 L 0 5" fill="white" stroke="#000000" stroke-width="1" display="none"/> 			<path id="_DBD64AF7-0453-43A6-B731-35636294E57Adefault" d="M 5 0 L 11 10" fill="white" stroke="#000000" stroke-width="1" display="none"/> 	  	</marker><marker id="_DBD64AF7-0453-43A6-B731-35636294E57Aend" refX="15" refY="6" markerUnits="userSpaceOnUse" markerWidth="15" markerHeight="12" orient="auto" fill="#000000" stroke="#000000"> 	  		<path id="_DBD64AF7-0453-43A6-B731-35636294E57Aframe2" d="M 0 1 L 15 6 L 0 11z" fill="#000000" stroke="#000000" stroke-linejoin="round" stroke-width="2"/> 	  	</marker><marker id="_7053677A-2C30-4FE3-A799-62DFCAB5726Fstart" refX="1" refY="5" markerUnits="userSpaceOnUse" markerWidth="17" markerHeight="11" orient="auto" fill="#000000" stroke="#000000"> 	  		<path id="_7053677A-2C30-4FE3-A799-62DFCAB5726Fconditional" d="M 0 5 L 8 0 L 16 5 L 8 10 L 0 5" fill="white" stroke="#000000" stroke-width="1" display="none"/> 			<path id="_7053677A-2C30-4FE3-A799-62DFCAB5726Fdefault" d="M 5 0 L 11 10" fill="white" stroke="#000000" stroke-width="1" display="none"/> 	  	</marker><marker id="_7053677A-2C30-4FE3-A799-62DFCAB5726Fend" refX="15" refY="6" markerUnits="userSpaceOnUse" markerWidth="15" markerHeight="12" orient="auto" fill="#000000" stroke="#000000"> 	  		<path id="_7053677A-2C30-4FE3-A799-62DFCAB5726Fframe2" d="M 0 1 L 15 6 L 0 11z" fill="#000000" stroke="#000000" stroke-linejoin="round" stroke-width="2"/> 	  	</marker><marker id="_14E7AEEF-6490-4B3E-8A84-FBB10BF3872Bstart" refX="1" refY="5" markerUnits="userSpaceOnUse" markerWidth="17" markerHeight="11" orient="auto" fill="#000000" stroke="#000000"> 	  		<path id="_14E7AEEF-6490-4B3E-8A84-FBB10BF3872Bconditional" d="M 0 5 L 8 0 L 16 5 L 8 10 L 0 5" fill="white" stroke="#000000" stroke-width="1" display="none"/> 			<path id="_14E7AEEF-6490-4B3E-8A84-FBB10BF3872Bdefault" d="M 5 0 L 11 10" fill="white" stroke="#000000" stroke-width="1" display="none"/> 	  	</marker><marker id="_14E7AEEF-6490-4B3E-8A84-FBB10BF3872Bend" refX="15" refY="6" markerUnits="userSpaceOnUse" markerWidth="15" markerHeight="12" orient="auto" fill="#000000" stroke="#000000"> 	  		<path id="_14E7AEEF-6490-4B3E-8A84-FBB10BF3872Bframe2" d="M 0 1 L 15 6 L 0 11z" fill="#000000" stroke="#000000" stroke-linejoin="round" stroke-width="2"/> 	  	</marker><marker id="_188CDED6-B2AC-4E05-8CDC-68595900390Estart" refX="1" refY="5" markerUnits="userSpaceOnUse" markerWidth="17" markerHeight="11" orient="auto" fill="#000000" stroke="#000000"> 	  		<path id="_188CDED6-B2AC-4E05-8CDC-68595900390Econditional" d="M 0 5 L 8 0 L 16 5 L 8 10 L 0 5" fill="white" stroke="#000000" stroke-width="1" display="none"/> 			<path id="_188CDED6-B2AC-4E05-8CDC-68595900390Edefault" d="M 5 0 L 11 10" fill="white" stroke="#000000" stroke-width="1" display="none"/> 	  	</marker><marker id="_188CDED6-B2AC-4E05-8CDC-68595900390Eend" refX="15" refY="6" markerUnits="userSpaceOnUse" markerWidth="15" markerHeight="12" orient="auto" fill="#000000" stroke="#000000"> 	  		<path id="_188CDED6-B2AC-4E05-8CDC-68595900390Eframe2" d="M 0 1 L 15 6 L 0 11z" fill="#000000" stroke="#000000" stroke-linejoin="round" stroke-width="2"/> 	  	</marker></defs><g stroke="none" font-family="Verdana, sans-serif" font-size-adjust="none" font-style="normal" font-variant="normal" font-weight="normal" line-heigth="normal" font-size="12"><g class="stencils" transform="translate(15, 16)"><g class="me"/><g class="children"><g id="_BB14E122-3A0D-4260-989E-9A1AD2FC3D9D" bpmn2nodeid="_1ED2D4D1-0E20-4F37-9370-2A163EC0061A"><g class="stencils" transform="translate(130, 210)"><g class="me"><g pointer-events="fill" id="_BB14E122-3A0D-4260-989E-9A1AD2FC3D9D">        <defs id="_BB14E122-3A0D-4260-989E-9A1AD2FC3D9D__BB14E122-3A0D-4260-989E-9A1AD2FC3D9D_5"> 		<radialGradient id="_BB14E122-3A0D-4260-989E-9A1AD2FC3D9Dbackground" cx="10%" cy="10%" r="100%" fx="10%" fy="10%"> 			<stop offset="0%" stop-color="#ffffff" stop-opacity="1" id="_BB14E122-3A0D-4260-989E-9A1AD2FC3D9D__BB14E122-3A0D-4260-989E-9A1AD2FC3D9D_6"/> 			<stop id="_BB14E122-3A0D-4260-989E-9A1AD2FC3D9Dfill_el" offset="100%" stop-color="#9acd32" stop-opacity="1"/> 		</radialGradient> 	</defs> 	     <circle id="_BB14E122-3A0D-4260-989E-9A1AD2FC3D9Dbg_frame" cx="15" cy="15" r="15" stroke="#000000" fill="url(#_BB14E122-3A0D-4260-989E-9A1AD2FC3D9Dbackground) white" stroke-width="1" style="stroke-dasharray: 5.5, 3"/>      <circle id="_BB14E122-3A0D-4260-989E-9A1AD2FC3D9Dframe" cx="15" cy="15" r="15" stroke="#000000" fill="none" stroke-width="1" display="inherit"/>  	<text font-size="11" id="_BB14E122-3A0D-4260-989E-9A1AD2FC3D9Dtext_name" x="15" y="32" oryx:align="top center" stroke="black" stroke-width="0pt" letter-spacing="-0.01px" fill="#000000" text-anchor="middle" transform="rotate(0 15 32)" visibility="inherit" oryx:fontSize="11"><tspan x="15" y="32" dy="11">StartProcess</tspan></text>   </g></g><g class="children" style="overflow:hidden"/><g class="edge"/></g><g class="controls"><g class="dockers"/><g class="magnets" transform="translate(130, 210)"><g pointer-events="all" display="none" transform="translate(7, 7)"><circle cx="8" cy="8" r="4" stroke="none" fill="red" fill-opacity="0.3"/></g></g></g></g><g id="_9F51EAA6-2216-44B9-B697-A98A5031DF5D" bpmn2nodeid="_CCCAA520-3132-494A-B34C-D5FE54BE773D"><g class="stencils" transform="translate(271, 203)"><g class="me"><g pointer-events="fill" oryx:minimumSize="80 60" id="_9F51EAA6-2216-44B9-B697-A98A5031DF5D">   	<defs id="_9F51EAA6-2216-44B9-B697-A98A5031DF5D__9F51EAA6-2216-44B9-B697-A98A5031DF5D_17"> 		<radialGradient id="_9F51EAA6-2216-44B9-B697-A98A5031DF5Dbackground" cx="10%" cy="10%" r="100%" fx="10%" fy="10%"> 			<stop offset="0%" stop-color="#ffffff" stop-opacity="1" id="_9F51EAA6-2216-44B9-B697-A98A5031DF5D__9F51EAA6-2216-44B9-B697-A98A5031DF5D_18"/> 			<stop id="_9F51EAA6-2216-44B9-B697-A98A5031DF5Dfill_el" offset="100%" stop-color="#fafad2" stop-opacity="1"/> 		</radialGradient> 	</defs> 	<rect id="_9F51EAA6-2216-44B9-B697-A98A5031DF5Dtext_frame" oryx:anchors="bottom top right left" x="1" y="1" width="104" height="59" rx="10" ry="10" stroke="none" stroke-width="0" fill="none"/> 	<rect id="_9F51EAA6-2216-44B9-B697-A98A5031DF5Dbg_frame" oryx:anchors="bottom top right left" x="0" y="0" width="110" height="60" rx="10" ry="10" stroke="#000000" stroke-width="1" fill="url(#_9F51EAA6-2216-44B9-B697-A98A5031DF5Dbackground) #ffffcc"/> 	<rect id="_9F51EAA6-2216-44B9-B697-A98A5031DF5Dframe" oryx:resize="vertical horizontal" oryx:anchors="bottom top right left" x="0" y="0" width="110" height="60" rx="10" ry="10" stroke="#000000" stroke-width="4" fill="none"/> 	<rect id="_9F51EAA6-2216-44B9-B697-A98A5031DF5Dframe2" oryx:anchors="top bottom left right" oryx:resize="vertical horizontal" x="2.5" y="2.5" width="105" height="55" rx="8" ry="8" stroke="#000000" stroke-width="1" fill="none"/>     	<text font-size="12" id="_9F51EAA6-2216-44B9-B697-A98A5031DF5Dtext_name" x="55.00000000000001" y="30" oryx:align="middle center" oryx:fittoelem="text_frame" stroke="black" stroke-width="0pt" letter-spacing="-0.01px" fill="#000000" text-anchor="middle" transform="rotate(0 55.00000000000001 30)" visibility="inherit" oryx:fontSize="12"><tspan x="55.00000000000001" y="30" dy="5" id="ext-gen607">Call Activity 1</tspan></text>          <a id="_9F51EAA6-2216-44B9-B697-A98A5031DF5Dpimg" onclick="ORYX.EDITOR._pluginFacade.raiseEvent({                                                                          type 		: ORYX.CONFIG.EVENT_NOTIFICATION_SHOW,                                                                                    ntype		: 'error',                                                                                                                msg         : 'Unable to open called process.',                                                                                        title       : ''                                                                                                                   });">	 	<g id="_9F51EAA6-2216-44B9-B697-A98A5031DF5Db" oryx:anchors="bottom"> 		<rect id="_9F51EAA6-2216-44B9-B697-A98A5031DF5Dframe3" oryx:anchors="bottom" x="49.10000000000001" y="46" width="14" height="14" fill="none" stroke="#000000" stroke-width="1"/> 		<path id="_9F51EAA6-2216-44B9-B697-A98A5031DF5Dframe4" oryx:anchors="bottom" fill="none" stroke="#000000" d=" M56.1 48  v10  M51.1 53  h10 " stroke-width="1"/> 	</g> 	</a> 	<g id="_9F51EAA6-2216-44B9-B697-A98A5031DF5Dnone"/> 	undefined 	  	undefined 	undefined 	 	 	undefined 	undefined   </g></g><g class="children" style="overflow:hidden"/><g class="edge"/></g><g class="controls"><g class="dockers"/><g class="magnets" transform="translate(271, 203)"><g pointer-events="all" display="none" transform="translate(-7, 7)"><circle cx="8" cy="8" r="4" stroke="none" fill="red" fill-opacity="0.3"/></g><g pointer-events="all" display="none" transform="translate(-7, 22)"><circle cx="8" cy="8" r="4" stroke="none" fill="red" fill-opacity="0.3"/></g><g pointer-events="all" display="none" transform="translate(-7, 37)"><circle cx="8" cy="8" r="4" stroke="none" fill="red" fill-opacity="0.3"/></g><g pointer-events="all" display="none" transform="translate(19.500000000000004, 51)"><circle cx="8" cy="8" r="4" stroke="none" fill="red" fill-opacity="0.3"/></g><g pointer-events="all" display="none" transform="translate(47.00000000000001, 51)"><circle cx="8" cy="8" r="4" stroke="none" fill="red" fill-opacity="0.3"/></g><g pointer-events="all" display="none" transform="translate(74.5, 51)"><circle cx="8" cy="8" r="4" stroke="none" fill="red" fill-opacity="0.3"/></g><g pointer-events="all" display="none" transform="translate(101, 7)"><circle cx="8" cy="8" r="4" stroke="none" fill="red" fill-opacity="0.3"/></g><g pointer-events="all" display="none" transform="translate(101, 22)"><circle cx="8" cy="8" r="4" stroke="none" fill="red" fill-opacity="0.3"/></g><g pointer-events="all" display="none" transform="translate(101, 37)"><circle cx="8" cy="8" r="4" stroke="none" fill="red" fill-opacity="0.3"/></g><g pointer-events="all" display="none" transform="translate(19.500000000000004, -7)"><circle cx="8" cy="8" r="4" stroke="none" fill="red" fill-opacity="0.3"/></g><g pointer-events="all" display="none" transform="translate(47.00000000000001, -7)"><circle cx="8" cy="8" r="4" stroke="none" fill="red" fill-opacity="0.3"/></g><g pointer-events="all" display="none" transform="translate(74.5, -7)"><circle cx="8" cy="8" r="4" stroke="none" fill="red" fill-opacity="0.3"/></g><g pointer-events="all" display="none" transform="translate(47.00000000000001, 22)"><circle cx="8" cy="8" r="4" stroke="none" fill="red" fill-opacity="0.3"/></g></g></g></g><g id="_3FFB1B3E-D2E8-49A1-A1A0-CC03BC782A0D" bpmn2nodeid="_864FA1F0-35F1-4C2E-8BB8-7AFCC9178043"><g class="stencils" transform="translate(449, 210)"><g class="me"><g pointer-events="fill" id="_3FFB1B3E-D2E8-49A1-A1A0-CC03BC782A0D">      <defs id="_3FFB1B3E-D2E8-49A1-A1A0-CC03BC782A0D__3FFB1B3E-D2E8-49A1-A1A0-CC03BC782A0D_5"> 		<radialGradient id="_3FFB1B3E-D2E8-49A1-A1A0-CC03BC782A0Dbackground" cx="10%" cy="10%" r="100%" fx="10%" fy="10%"> 			<stop offset="0%" stop-color="#ffffff" stop-opacity="1" id="_3FFB1B3E-D2E8-49A1-A1A0-CC03BC782A0D__3FFB1B3E-D2E8-49A1-A1A0-CC03BC782A0D_6"/> 			<stop id="_3FFB1B3E-D2E8-49A1-A1A0-CC03BC782A0Dfill_el" offset="100%" stop-color="#ff6347" stop-opacity="1"/> 		</radialGradient> 	</defs> 	     <circle id="_3FFB1B3E-D2E8-49A1-A1A0-CC03BC782A0Dbg_frame" cx="14" cy="14" r="14" stroke="#000000" fill="url(#_3FFB1B3E-D2E8-49A1-A1A0-CC03BC782A0Dbackground) white" stroke-width="3"/> 	<text font-size="11" id="_3FFB1B3E-D2E8-49A1-A1A0-CC03BC782A0Dtext_name" x="14" y="30" oryx:align="top center" stroke="black" stroke-width="0pt" letter-spacing="-0.01px" fill="#000000" text-anchor="middle" transform="rotate(0 14 30)" visibility="inherit" oryx:fontSize="11"><tspan x="14" y="30" dy="11">End1</tspan></text>   </g></g><g class="children" style="overflow:hidden"/><g class="edge"/></g><g class="controls"><g class="dockers"/><g class="magnets" transform="translate(449, 210)"><g pointer-events="all" display="none" transform="translate(6, 6)"><circle cx="8" cy="8" r="4" stroke="none" fill="red" fill-opacity="0.3"/></g></g></g></g><g id="_63AA248A-C13A-43E5-956D-C3C10E93456D" bpmn2nodeid="_94910B66-0972-4141-9A11-FC558AC499A2"><g class="stencils" transform="translate(592, 325)"><g class="me"><g pointer-events="fill" id="_63AA248A-C13A-43E5-956D-C3C10E93456D">       <defs id="_63AA248A-C13A-43E5-956D-C3C10E93456D__63AA248A-C13A-43E5-956D-C3C10E93456D_5"> 		<radialGradient id="_63AA248A-C13A-43E5-956D-C3C10E93456Dbackground" cx="10%" cy="10%" r="100%" fx="10%" fy="10%"> 			<stop offset="0%" stop-color="#ffffff" stop-opacity="1" id="_63AA248A-C13A-43E5-956D-C3C10E93456D__63AA248A-C13A-43E5-956D-C3C10E93456D_6"/> 			<stop id="_63AA248A-C13A-43E5-956D-C3C10E93456Dfill_el" offset="100%" stop-color="#ff6347" stop-opacity="1"/> 		</radialGradient> 		<radialGradient id="_63AA248A-C13A-43E5-956D-C3C10E93456Dborderbackground" cx="10%" cy="10%" r="100%" fx="10%" fy="10%"> 			<stop offset="0%" stop-color="#ffffff" stop-opacity="1" id="_63AA248A-C13A-43E5-956D-C3C10E93456D__63AA248A-C13A-43E5-956D-C3C10E93456D_7"/> 			<stop id="_63AA248A-C13A-43E5-956D-C3C10E93456Dfill_border" offset="100%" stop-color="#000000" stop-opacity="1" stroke="#000000"/> 		</radialGradient> 	</defs> 	     <circle id="_63AA248A-C13A-43E5-956D-C3C10E93456Dbg_frame" cx="14" cy="14" r="14" stroke="#000000" fill="url(#_63AA248A-C13A-43E5-956D-C3C10E93456Dbackground) white" stroke-width="3"/>          <circle id="_63AA248A-C13A-43E5-956D-C3C10E93456Dframe" cx="14" cy="14" r="9" stroke="#000000" fill="url(#_63AA248A-C13A-43E5-956D-C3C10E93456Dborderbackground)" stroke-width="1"/> 	<text font-size="11" id="_63AA248A-C13A-43E5-956D-C3C10E93456Dtext_name" x="14" y="30" oryx:align="top center" stroke="black" stroke-width="0pt" letter-spacing="-0.01px" fill="#000000" text-anchor="middle" transform="rotate(0 14 30)" visibility="inherit" oryx:fontSize="11"><tspan x="14" y="30" dy="11">End2</tspan></text>   </g></g><g class="children" style="overflow:hidden"/><g class="edge"/></g><g class="controls"><g class="dockers"/><g class="magnets" transform="translate(592, 325)"><g pointer-events="all" display="none" transform="translate(6, 6)"><circle cx="8" cy="8" r="4" stroke="none" fill="red" fill-opacity="0.3"/></g></g></g></g><g id="_19ADC69C-383D-4AD5-84C3-B2CE7EB37B93" bpmn2nodeid="_C96CD75B-F7DB-456A-A524-7ACC0F735FCC"><g class="stencils" transform="translate(271, 318)"><g class="me"><g pointer-events="fill" oryx:minimumSize="50 40" id="_19ADC69C-383D-4AD5-84C3-B2CE7EB37B93">   	<defs id="_19ADC69C-383D-4AD5-84C3-B2CE7EB37B93__19ADC69C-383D-4AD5-84C3-B2CE7EB37B93_17"> 		<radialGradient id="_19ADC69C-383D-4AD5-84C3-B2CE7EB37B93background" cx="10%" cy="10%" r="100%" fx="10%" fy="10%"> 			<stop offset="0%" stop-color="#ffffff" stop-opacity="1" id="_19ADC69C-383D-4AD5-84C3-B2CE7EB37B93__19ADC69C-383D-4AD5-84C3-B2CE7EB37B93_18"/> 			<stop id="_19ADC69C-383D-4AD5-84C3-B2CE7EB37B93fill_el" offset="100%" stop-color="#fafad2" stop-opacity="1"/> 		</radialGradient> 		<radialGradient id="_19ADC69C-383D-4AD5-84C3-B2CE7EB37B93borderbackground" cx="10%" cy="10%" r="100%" fx="10%" fy="10%"> 			<stop offset="0%" stop-color="#ffffff" stop-opacity="1" id="_19ADC69C-383D-4AD5-84C3-B2CE7EB37B93__19ADC69C-383D-4AD5-84C3-B2CE7EB37B93_19"/> 			<stop id="_19ADC69C-383D-4AD5-84C3-B2CE7EB37B93fill_border" offset="100%" stop-color="#000000" stop-opacity="1" stroke="#000000"/> 		</radialGradient> 	</defs> 	 	<rect id="_19ADC69C-383D-4AD5-84C3-B2CE7EB37B93text_frame" oryx:anchors="bottom top right left" x="1" y="1" width="104" height="49" rx="10" ry="10" stroke="none" stroke-width="0" fill="none"/> 	<rect id="_19ADC69C-383D-4AD5-84C3-B2CE7EB37B93bg_frame" oryx:resize="vertical horizontal" x="0" y="0" width="110.00000000000001" height="50" rx="10" ry="10" stroke="#000000" stroke-width="1" fill="url(#_19ADC69C-383D-4AD5-84C3-B2CE7EB37B93background) #ffffcc"/> 		<text font-size="12" id="_19ADC69C-383D-4AD5-84C3-B2CE7EB37B93text_name" x="55.00000000000001" y="25" oryx:align="middle center" oryx:fittoelem="text_frame" stroke="black" text-anchor="middle" stroke-width="0pt" letter-spacing="-0.01px" fill="#000000" transform="rotate(0 55.00000000000001 25)" visibility="inherit" oryx:fontSize="12"><tspan x="55.00000000000001" y="25" dy="5" id="ext-gen606">Task Parent</tspan></text>     <g id="_19ADC69C-383D-4AD5-84C3-B2CE7EB37B93manualTask" transform="scale(0.7,0.7) translate(8,8)" display="none">     	<path oryx:anchors="top left" id="_19ADC69C-383D-4AD5-84C3-B2CE7EB37B93frame" style="opacity:1;fill:none;fill-opacity:1;stroke-width:1" d="M0.5,3.751l4.083-3.25c0,0,11.166,0.083,12.083,0.083s-2.417,2.917-1.5,2.917     s11.667,0,12.584,0c1.166,1.708-0.168,3.167-0.834,3.667s0.875,1.917-1,4.417c-0.75,0.25,0.75,1.875-1.333,3.333     c-1.167,0.583,0.583,1.542-1.25,2.833c-1.167,0-20.833,0.083-20.833,0.083l-2-1.333V3.751z" stroke="#000000"/> 		<path id="_19ADC69C-383D-4AD5-84C3-B2CE7EB37B93frame2" oryx:anchors="top left" style="opacity:1;fill:none;stroke-width:2" d="M 13.5 7 L 27 7" stroke="#000000"/> 		<path id="_19ADC69C-383D-4AD5-84C3-B2CE7EB37B93frame3" oryx:anchors="top left" style="opacity:1;fill:none;stroke-width:2" d="M 13.5 11 L 26 11" stroke="#000000"/> 		<path id="_19ADC69C-383D-4AD5-84C3-B2CE7EB37B93frame4" oryx:anchors="top left" style="opacity:1;fill:none;stroke-width:1.5" d="M 14 14.5 L 25 14.5" stroke="#000000"/> 		<path id="_19ADC69C-383D-4AD5-84C3-B2CE7EB37B93frame5" oryx:anchors="top left" style="opacity:1;fill:none;stroke-width:1.5" d="M 8.2 3.1 L 15 3.1" stroke="#000000"/> 	</g> 	 	<g id="_19ADC69C-383D-4AD5-84C3-B2CE7EB37B93businessRuleTask" transform="scale(0.7,0.7) translate(8,8)" display="none"> 		<rect id="_19ADC69C-383D-4AD5-84C3-B2CE7EB37B93frame6" oryx:anchors="top left" x="0" y="0" width="22" height="4" style="opacity:1;fill:#B3B1B3;fill-opacity:1;" stroke="#000000"/> 		<rect id="_19ADC69C-383D-4AD5-84C3-B2CE7EB37B93frame7" oryx:anchors="top left" x="0" y="4" style="opacity:1;fill:none;" width="22" height="12" stroke="#000000"/> 		<path id="_19ADC69C-383D-4AD5-84C3-B2CE7EB37B93frame8" oryx:anchors="top left" style="opacity:1;fill:none;" d="M 0 10 L 22 10" stroke="#000000"/> 		<path id="_19ADC69C-383D-4AD5-84C3-B2CE7EB37B93frame9" oryx:anchors="top left" style="opacity:1; fill:none;" d="M 7 4 L 7 16" stroke="#000000"/> 	</g> 	 	<g id="_19ADC69C-383D-4AD5-84C3-B2CE7EB37B93scriptTask" transform="scale(0.7,0.7) translate(8,8)" display="none"> 		<path oryx:anchors="top left" id="_19ADC69C-383D-4AD5-84C3-B2CE7EB37B93frame10" style="opacity:1;fill:none;" stroke="#000000" d="M6.402,0.5h14.5c0,0-5.833,2.833-5.833,5.583s4.417,6,4.417,9.167    s-4.167,5.083-4.167,5.083H0.235c0,0,5-2.667,5-5s-4.583-6.75-4.583-9.25S6.402,0.5,6.402,0.5z"/> 		<path oryx:anchors="top left" id="_19ADC69C-383D-4AD5-84C3-B2CE7EB37B93frame11" style="opacity:1;fill:none;stroke-width:1.5" d="M 3.5 4.5 L 13.5 4.5" stroke="#000000"/> 		<path oryx:anchors="top left" id="_19ADC69C-383D-4AD5-84C3-B2CE7EB37B93frame12" style="opacity:1;fill:none;stroke-width:1.5" d="M 3.8 8.5 L 13.8 8.5" stroke="#000000"/> 		<path oryx:anchors="top left" id="_19ADC69C-383D-4AD5-84C3-B2CE7EB37B93frame13" style="opacity:1;fill:none;stroke-width:1.5" d="M 6.3 12.5 L 16.3 12.5" stroke="#000000"/> 		<path oryx:anchors="top left" id="_19ADC69C-383D-4AD5-84C3-B2CE7EB37B93frame14" style="opacity:1;fill:none;stroke-width:1.5" d="M 6.5 16.5 L 16.5 16.5" stroke="#000000"/> 	</g> 	 	<g id="_19ADC69C-383D-4AD5-84C3-B2CE7EB37B93userTask" transform="scale(0.7,0.7) translate(8,8)" display="none"> 		<path id="_19ADC69C-383D-4AD5-84C3-B2CE7EB37B93frame15" oryx:anchors="top left" style="opacity:1;fill:#F4F6F7" stroke="#000000" d="M0.585,24.167h24.083v-7.833c0,0-2.333-3.917-7.083-5.167h-9.25    c-4.417,1.333-7.833,5.75-7.833,5.75L0.585,24.167z"/> 		<path id="_19ADC69C-383D-4AD5-84C3-B2CE7EB37B93frame16" oryx:anchors="top left" style="opacity:1;fill:none" d="M 6 20 L 6 24" stroke="#000000"/> 		<path id="_19ADC69C-383D-4AD5-84C3-B2CE7EB37B93frame17" oryx:anchors="top left" style="opacity:1;fill:none" d="M 20 20 L 20 24" stroke="#000000"/> 		<circle id="_19ADC69C-383D-4AD5-84C3-B2CE7EB37B93frame18" oryx:anchors="top left" fill="black" cx="13.002" cy="5.916" r="5.417" stroke="#000000"/> 		<path id="_19ADC69C-383D-4AD5-84C3-B2CE7EB37B93frame19" oryx:anchors="top left" style="opacity:1;fill:#F0EFF0;" stroke="#000000" d="M8.043,7.083c0,0,2.814-2.426,5.376-1.807s4.624-0.693,4.624-0.693    c0.25,1.688,0.042,3.75-1.458,5.584c0,0,1.083,0.75,1.083,1.5s0.125,1.875-1,3s-5.5,1.25-6.75,0S8.668,12.834,8.668,12    s0.583-1.25,1.25-1.917C8.835,9.5,7.419,7.708,8.043,7.083z"/> 	</g> 	 	<g id="_19ADC69C-383D-4AD5-84C3-B2CE7EB37B93serviceTask" transform="scale(0.7,0.7) translate(8,8)" display="none"> 		<polygon oryx:anchors="top left" id="_19ADC69C-383D-4AD5-84C3-B2CE7EB37B93frame20" style="opacity:1;fill:#ffffff" stroke="#000000" points="15.392,5.064 17.954,2.502 20.347,4.895 17.786,7.455     18.729,9.732 22.353,9.732 22.353,13.115 18.731,13.115 17.788,15.392 20.351,17.955 17.958,20.347 15.397,17.786 13.12,18.729     13.12,22.353 9.737,22.353 9.737,18.731 7.46,17.788 4.897,20.35 2.506,17.958 5.066,15.397 4.124,13.12 0.5,13.12 0.5,9.737     4.121,9.737 5.065,7.461 2.503,4.898 4.895,2.506 7.455,5.066 9.732,4.125 9.732,0.5 13.116,0.5 13.116,4.121 "/> 		<circle oryx:anchors="top left" id="_19ADC69C-383D-4AD5-84C3-B2CE7EB37B93frame21" style="opacity:1;fill:none" stroke="#000000" cx="11.427" cy="11.426" r="3.714"/> 		<polygon oryx:anchors="top left" id="_19ADC69C-383D-4AD5-84C3-B2CE7EB37B93frame22" style="opacity:1;fill:#ffffff" stroke="#000000" points="21.392,11.064 23.954,8.502 26.347,10.895 23.786,13.455     24.729,15.732 28.353,15.732 28.353,19.115 24.731,19.115 23.788,21.392 26.351,23.955 23.958,26.347 21.397,23.786 19.12,24.729     19.12,28.353 15.737,28.353 15.737,24.731 13.46,23.788 10.897,26.35 8.506,23.958 11.066,21.397 10.124,19.12 6.5,19.12     6.5,15.737 10.121,15.737 11.065,13.461 8.503,10.898 10.895,8.506 13.455,11.066 15.732,10.125 15.732,6.5 19.116,6.5     19.116,10.121 "/> 		<circle oryx:anchors="top left" id="_19ADC69C-383D-4AD5-84C3-B2CE7EB37B93frame23" style="opacity:1;fill:none;" stroke="#000000" cx="17.427" cy="17.426" r="3.714"/> 	</g> 	 	<g id="_19ADC69C-383D-4AD5-84C3-B2CE7EB37B93sendTask" display="none"> 		<path id="_19ADC69C-383D-4AD5-84C3-B2CE7EB37B93stframe24" oryx:anchors="left top" stroke="#FFFFFF" fill="black" stroke-width="1" d="M8,11 L8,21 L24,21 L24,11 L16,17z"/> 		<path id="_19ADC69C-383D-4AD5-84C3-B2CE7EB37B93stframe25" oryx:anchors="left top" stroke="#FFFFFF" fill="black" stroke-width="1" d="M7,10 L16,17 L25 10z"/> 	</g> 	 	<g id="_19ADC69C-383D-4AD5-84C3-B2CE7EB37B93receiveTask" display="none"> 		<path id="_19ADC69C-383D-4AD5-84C3-B2CE7EB37B93frame26" oryx:anchors="left top" stroke="#000000" fill="none" stroke-width="1" d="M8,11 L8,21 L24,21 L24,11z M8,11 L16,17 L24,11"/> 	</g> 	 	<g id="_19ADC69C-383D-4AD5-84C3-B2CE7EB37B93none" display="inherit"/>  	<g id="_19ADC69C-383D-4AD5-84C3-B2CE7EB37B93sequential" display="none">         <path oryx:anchors="bottom" fill="none" stroke="#000000" stroke-width="2" d=" M51.1 46  h10  M51.1 42  h10  M51.1 38  h10 " id="_19ADC69C-383D-4AD5-84C3-B2CE7EB37B93__19ADC69C-383D-4AD5-84C3-B2CE7EB37B93_20"/>     </g>   </g></g><g class="children" style="overflow:hidden"/><g class="edge"/></g><g class="controls"><g class="dockers"/><g class="magnets" transform="translate(271, 318)"><g pointer-events="all" display="none" transform="translate(-7, 4.5)"><circle cx="8" cy="8" r="4" stroke="none" fill="red" fill-opacity="0.3"/></g><g pointer-events="all" display="none" transform="translate(-7, 17)"><circle cx="8" cy="8" r="4" stroke="none" fill="red" fill-opacity="0.3"/></g><g pointer-events="all" display="none" transform="translate(-7, 29.5)"><circle cx="8" cy="8" r="4" stroke="none" fill="red" fill-opacity="0.3"/></g><g pointer-events="all" display="none" transform="translate(19.500000000000004, 41)"><circle cx="8" cy="8" r="4" stroke="none" fill="red" fill-opacity="0.3"/></g><g pointer-events="all" display="none" transform="translate(47.00000000000001, 41)"><circle cx="8" cy="8" r="4" stroke="none" fill="red" fill-opacity="0.3"/></g><g pointer-events="all" display="none" transform="translate(74.5, 41)"><circle cx="8" cy="8" r="4" stroke="none" fill="red" fill-opacity="0.3"/></g><g pointer-events="all" display="none" transform="translate(101, 4.5)"><circle cx="8" cy="8" r="4" stroke="none" fill="red" fill-opacity="0.3"/></g><g pointer-events="all" display="none" transform="translate(101, 17)"><circle cx="8" cy="8" r="4" stroke="none" fill="red" fill-opacity="0.3"/></g><g pointer-events="all" display="none" transform="translate(101, 29.5)"><circle cx="8" cy="8" r="4" stroke="none" fill="red" fill-opacity="0.3"/></g><g pointer-events="all" display="none" transform="translate(19.500000000000004, -7)"><circle cx="8" cy="8" r="4" stroke="none" fill="red" fill-opacity="0.3"/></g><g pointer-events="all" display="none" transform="translate(47.00000000000001, -7)"><circle cx="8" cy="8" r="4" stroke="none" fill="red" fill-opacity="0.3"/></g><g pointer-events="all" display="none" transform="translate(74.5, -7)"><circle cx="8" cy="8" r="4" stroke="none" fill="red" fill-opacity="0.3"/></g><g pointer-events="all" display="none" transform="translate(47.00000000000001, 17)"><circle cx="8" cy="8" r="4" stroke="none" fill="red" fill-opacity="0.3"/></g></g></g></g><g id="_55BD6F0D-2D4B-46EF-8F2C-B2CA5149845E" bpmn2nodeid="_FCCDEA75-7CDE-4570-B026-0BEFFF9E2A7E"><g class="stencils" transform="translate(255.35690021357556, 206.21675533934544)"><g class="me"><g pointer-events="fill" id="_55BD6F0D-2D4B-46EF-8F2C-B2CA5149845E">        <defs id="_55BD6F0D-2D4B-46EF-8F2C-B2CA5149845E__55BD6F0D-2D4B-46EF-8F2C-B2CA5149845E_6"> 		<radialGradient id="_55BD6F0D-2D4B-46EF-8F2C-B2CA5149845Ebackground" cx="10%" cy="10%" r="100%" fx="10%" fy="10%"> 			<stop offset="0%" stop-color="#ffffff" stop-opacity="1" id="_55BD6F0D-2D4B-46EF-8F2C-B2CA5149845E__55BD6F0D-2D4B-46EF-8F2C-B2CA5149845E_7"/> 			<stop id="_55BD6F0D-2D4B-46EF-8F2C-B2CA5149845Efill_el" offset="100%" stop-color="#f5deb3" stop-opacity="1"/> 		</radialGradient> 	</defs> 	     <circle id="_55BD6F0D-2D4B-46EF-8F2C-B2CA5149845Ebg_frame" cx="15" cy="15" r="15" stroke="#a0522d" fill="url(#_55BD6F0D-2D4B-46EF-8F2C-B2CA5149845Ebackground) white" stroke-width="1"/>     <circle id="_55BD6F0D-2D4B-46EF-8F2C-B2CA5149845Eframe" cx="15" cy="15" r="12" stroke="#a0522d" fill="none" stroke-width="1"/>          <path id="_55BD6F0D-2D4B-46EF-8F2C-B2CA5149845Eframe2" stroke="#a0522d" style="fill:none;stroke-width:1.5;stroke-linecap:butt;stroke-linejoin:miter;stroke-miterlimit:10" d=" M21.820839 10.171502  L18.36734 23.58992  L12.541380000000002 13.281818999999999  L8.338651200000001 19.071607  L12.048949000000002 5.832305699999999  L17.996148000000005 15.132659  L21.820839 10.171502  z"/> 	<text font-size="11" id="_55BD6F0D-2D4B-46EF-8F2C-B2CA5149845Etext_name" x="15" y="32" oryx:align="top center" stroke="black" stroke-width="0pt" letter-spacing="-0.01px" fill="#000000" text-anchor="middle" transform="rotate(0 15 32)" visibility="inherit" oryx:fontSize="11"><tspan x="15" y="32" dy="11" id="ext-gen643">Boundary event</tspan></text>   </g></g><g class="children" style="overflow:hidden"/><g class="edge"/></g><g class="controls"><g class="dockers"/><g class="magnets" transform="translate(255.35690021357556, 206.21675533934544)"><g pointer-events="all" display="none" transform="translate(7, 7)"><circle cx="8" cy="8" r="4" stroke="none" fill="red" fill-opacity="0.3"/></g></g></g></g></g><g class="edge"><g id="_DBD64AF7-0453-43A6-B731-35636294E57A" bpmn2nodeid="_7B26B3CE-B95F-4678-ADC0-415346489536"><g class="stencils"><g class="me"><g pointer-events="painted" bpmn2nodeid="_F2FEBF48-6E2D-4ACF-8E3C-FE39367FBE0F"><path id="_DBD64AF7-0453-43A6-B731-35636294E57A_1" d="M160.1396496576362 225.66915578597286L270.5595690923638 230.54959421402714 " stroke="#000000" fill="none" stroke-width="2" stroke-linecap="round" stroke-linejoin="round" marker-start="url(#_DBD64AF7-0453-43A6-B731-35636294E57Astart)" marker-end="url(#_DBD64AF7-0453-43A6-B731-35636294E57Aend)"/></g><text id="_DBD64AF7-0453-43A6-B731-35636294E57Atext_name" font-size="12" x="174.1396496576362" y="211.66915578597286" oryx:edgePosition="startTop" stroke-width="0pt" letter-spacing="-0.01px" fill="#000000" text-anchor="start" transform="rotate(2.5307630176354223 160.1396496576362 225.66915578597286)" visibility="inherit" oryx:fontSize="12"/></g><g class="children" style="overflow:hidden"/><g class="edge"/></g><g class="controls"><g class="dockers"/><g class="magnets"/></g></g><g id="_7053677A-2C30-4FE3-A799-62DFCAB5726F" bpmn2nodeid="_E99011AA-0C5B-4797-A5E5-A7F94FBD37D8"><g class="stencils"><g class="me"><g pointer-events="painted" bpmn2nodeid="_4125968A-6134-4A3A-89A3-9DD2D0544E65"><path id="_7053677A-2C30-4FE3-A799-62DFCAB5726F_1" d="M381.583786645799 229.34851036633438L448.088088354201 224.97961463366562 " stroke="#000000" fill="none" stroke-width="2" stroke-linecap="round" stroke-linejoin="round" marker-start="url(#_7053677A-2C30-4FE3-A799-62DFCAB5726Fstart)" marker-end="url(#_7053677A-2C30-4FE3-A799-62DFCAB5726Fend)"/></g><text id="_7053677A-2C30-4FE3-A799-62DFCAB5726Ftext_name" font-size="12" x="395.583786645799" y="215.34851036633438" oryx:edgePosition="startTop" stroke-width="0pt" letter-spacing="-0.01px" fill="#000000" text-anchor="start" transform="rotate(356.241444314528 381.583786645799 229.34851036633438)" visibility="inherit" oryx:fontSize="12"/></g><g class="children" style="overflow:hidden"/><g class="edge"/></g><g class="controls"><g class="dockers"/><g class="magnets"/></g></g><g id="_14E7AEEF-6490-4B3E-8A84-FBB10BF3872B" bpmn2nodeid="_4D14F4DB-35F7-4F7A-9E72-1EC973F66A57"><g class="stencils"><g class="me"><g pointer-events="painted" bpmn2nodeid="_63D1ED5C-E8F8-49C3-8A5B-CA4840B47BDF"><path id="_14E7AEEF-6490-4B3E-8A84-FBB10BF3872B_1" d="M381.6873979747995 342.20446574321716L591.8751020252005 339.20178425678284 " stroke="#000000" fill="none" stroke-width="2" stroke-linecap="round" stroke-linejoin="round" marker-start="url(#_14E7AEEF-6490-4B3E-8A84-FBB10BF3872Bstart)" marker-end="url(#_14E7AEEF-6490-4B3E-8A84-FBB10BF3872Bend)"/></g><text id="_14E7AEEF-6490-4B3E-8A84-FBB10BF3872Btext_name" font-size="12" x="395.6873979747995" y="328.20446574321716" oryx:edgePosition="startTop" stroke-width="0pt" letter-spacing="-0.01px" fill="#000000" text-anchor="start" transform="rotate(359.18154453831136 381.6873979747995 342.20446574321716)" visibility="inherit" oryx:fontSize="12"/></g><g class="children" style="overflow:hidden"/><g class="edge"/></g><g class="controls"><g class="dockers"/><g class="magnets"/></g></g><g id="_188CDED6-B2AC-4E05-8CDC-68595900390E" bpmn2nodeid="_224BDBC2-5557-4548-8A47-61677E45A946"><g class="stencils"><g class="me"><g pointer-events="painted" bpmn2nodeid="_7C9631C8-BAD1-4267-8A99-359595F2EE2E"><path id="_188CDED6-B2AC-4E05-8CDC-68595900390E_1" d="M276.8584433663526 235.44635475931935L314.28191624224564 317.3532213930898 " stroke="#000000" fill="none" stroke-width="2" stroke-linecap="round" stroke-linejoin="round" marker-start="url(#_188CDED6-B2AC-4E05-8CDC-68595900390Estart)" marker-end="url(#_188CDED6-B2AC-4E05-8CDC-68595900390Eend)"/></g><text id="_188CDED6-B2AC-4E05-8CDC-68595900390Etext_name" font-size="12" x="290.8584433663526" y="221.44635475931935" oryx:edgePosition="startTop" stroke-width="0pt" letter-spacing="-0.01px" fill="#000000" text-anchor="start" transform="rotate(65.44420867962106 276.8584433663526 235.44635475931935)" visibility="inherit" oryx:fontSize="12"/></g><g class="children" style="overflow:hidden"/><g class="edge"/></g><g class="controls"><g class="dockers"/><g class="magnets"/></g></g></g><text id="_5AE97E44-9A30-476C-9597-B017718F2B09" style="stroke-width:1;fill:rgb(177,194,214);font-family:arial;font-weight:bold" font-size="12" onclick="ORYX.Plugins.CanvasTitle.openTextualAnalysis()" onmouseover="ORYX.Plugins.CanvasTitle.addToolTip('_5AE97E44-9A30-476C-9597-B017718F2B09')" transform="translate(10, 20)">Parent process v.1 (ParentProcess)</text></g></g></svg>