<svg xmlns="http://www.w3.org/2000/svg" xmlns:oryx="http://oryx-editor.org" id="_9EB27E36-9A67-4A4D-84AD-5DA1C3D60F8A" width="364" height="145" xmlns:xlink="http://www.w3.org/1999/xlink" xmlns:svg="http://www.w3.org/2000/svg"><defs><marker id="_82923E60-599B-4F21-A2DE-69073B5BEB4Estart" refX="1" refY="5" markerUnits="userSpaceOnUse" markerWidth="17" markerHeight="11" orient="auto" fill="#000000" stroke="#000000"> 	  		<path id="_82923E60-599B-4F21-A2DE-69073B5BEB4Econditional" d="M 0 5 L 8 0 L 16 5 L 8 10 L 0 5" fill="white" stroke="#000000" stroke-width="1" display="none"/> 			<path id="_82923E60-599B-4F21-A2DE-69073B5BEB4Edefault" d="M 5 0 L 11 10" fill="white" stroke="#000000" stroke-width="1" display="none"/> 	  	</marker><marker id="_82923E60-599B-4F21-A2DE-69073B5BEB4Eend" refX="15" refY="6" markerUnits="userSpaceOnUse" markerWidth="15" markerHeight="12" orient="auto" fill="#000000" stroke="#000000"> 	  		<path id="_82923E60-599B-4F21-A2DE-69073B5BEB4Eframe2" d="M 0 1 L 15 6 L 0 11z" fill="#000000" stroke="#000000" stroke-linejoin="round" stroke-width="2"/> 	  	</marker><marker id="_923B5F64-D118-4463-BB1A-DF27CE02324Dstart" refX="1" refY="5" markerUnits="userSpaceOnUse" markerWidth="17" markerHeight="11" orient="auto" fill="#000000" stroke="#000000"> 	  		<path id="_923B5F64-D118-4463-BB1A-DF27CE02324Dconditional" d="M 0 5 L 8 0 L 16 5 L 8 10 L 0 5" fill="white" stroke="#000000" stroke-width="1" display="none"/> 			<path id="_923B5F64-D118-4463-BB1A-DF27CE02324Ddefault" d="M 5 0 L 11 10" fill="white" stroke="#000000" stroke-width="1" display="none"/> 	  	</marker><marker id="_923B5F64-D118-4463-BB1A-DF27CE02324Dend" refX="15" refY="6" markerUnits="userSpaceOnUse" markerWidth="15" markerHeight="12" orient="auto" fill="#000000" stroke="#000000"> 	  		<path id="_923B5F64-D118-4463-BB1A-DF27CE02324Dframe2" d="M 0 1 L 15 6 L 0 11z" fill="#000000" stroke="#000000" stroke-linejoin="round" stroke-width="2"/> 	  	</marker></defs><g stroke="none" font-family="Verdana, sans-serif" font-size-adjust="none" font-style="normal" font-variant="normal" font-weight="normal" line-heigth="normal" font-size="12"><g class="stencils" transform="translate(15, 16)"><g class="me"/><g class="children"><g id="_1A4CC0B3-58CF-4886-BCE5-36498D230992" bpmn2nodeid="_682F4141-1E73-40C2-AACC-077830698B0F"><g class="stencils" transform="translate(50, 57)"><g class="me"><g pointer-events="fill" id="_1A4CC0B3-58CF-4886-BCE5-36498D230992">        <defs id="_1A4CC0B3-58CF-4886-BCE5-36498D230992__1A4CC0B3-58CF-4886-BCE5-36498D230992_5"> 		<radialGradient id="_1A4CC0B3-58CF-4886-BCE5-36498D230992background" cx="10%" cy="10%" r="100%" fx="10%" fy="10%"> 			<stop offset="0%" stop-color="#ffffff" stop-opacity="1" id="_1A4CC0B3-58CF-4886-BCE5-36498D230992__1A4CC0B3-58CF-4886-BCE5-36498D230992_6"/> 			<stop id="_1A4CC0B3-58CF-4886-BCE5-36498D230992fill_el" offset="100%" stop-color="#9acd32" stop-opacity="1"/> 		</radialGradient> 	</defs> 	     <circle id="_1A4CC0B3-58CF-4886-BCE5-36498D230992bg_frame" cx="15" cy="15" r="15" stroke="#000000" fill="url(#_1A4CC0B3-58CF-4886-BCE5-36498D230992background) white" stroke-width="1" style="stroke-dasharray: 5.5, 3"/>      <circle id="_1A4CC0B3-58CF-4886-BCE5-36498D230992frame" cx="15" cy="15" r="15" stroke="#000000" fill="none" stroke-width="1" display="inherit"/>  	<text font-size="11" id="_1A4CC0B3-58CF-4886-BCE5-36498D230992text_name" x="15" y="32" oryx:align="top center" stroke="black" stroke-width="0pt" letter-spacing="-0.01px" fill="#000000" text-anchor="middle" transform="rotate(0 15 32)" visibility="inherit" oryx:fontSize="11"><tspan x="15" y="32" dy="11">StartProcess</tspan></text>   </g></g><g class="children" style="overflow:hidden"/><g class="edge"/></g><g class="controls"><g class="dockers"/><g class="magnets" transform="translate(50, 57)"><g pointer-events="all" display="none" transform="translate(7, 7)"><circle cx="8" cy="8" r="4" stroke="none" fill="red" fill-opacity="0.3"/></g></g></g></g><g id="_02948A29-C006-4C73-B666-8B645C9B6A34" bpmn2nodeid="_6A8461E0-2DCA-4E2E-B88E-3DC5F4B6A6E3"><g class="stencils" transform="translate(296, 57)"><g class="me"><g pointer-events="fill" id="_02948A29-C006-4C73-B666-8B645C9B6A34">        <defs id="_02948A29-C006-4C73-B666-8B645C9B6A34__02948A29-C006-4C73-B666-8B645C9B6A34_6"> 		<radialGradient id="_02948A29-C006-4C73-B666-8B645C9B6A34background" cx="10%" cy="10%" r="100%" fx="10%" fy="10%"> 			<stop offset="0%" stop-color="#ffffff" stop-opacity="1" id="_02948A29-C006-4C73-B666-8B645C9B6A34__02948A29-C006-4C73-B666-8B645C9B6A34_7"/> 			<stop id="_02948A29-C006-4C73-B666-8B645C9B6A34fill_el" offset="100%" stop-color="#ff6347" stop-opacity="1"/> 		</radialGradient> 		<radialGradient id="_02948A29-C006-4C73-B666-8B645C9B6A34borderbackground" cx="10%" cy="10%" r="100%" fx="10%" fy="10%"> 			<stop offset="0%" stop-color="#ffffff" stop-opacity="1" id="_02948A29-C006-4C73-B666-8B645C9B6A34__02948A29-C006-4C73-B666-8B645C9B6A34_8"/> 			<stop id="_02948A29-C006-4C73-B666-8B645C9B6A34fill_border" offset="100%" stop-color="#000000" stop-opacity="1" stroke="#000000"/> 		</radialGradient> 	</defs> 	     <circle id="_02948A29-C006-4C73-B666-8B645C9B6A34bg_frame" cx="14" cy="14" r="14" stroke="#000000" fill="url(#_02948A29-C006-4C73-B666-8B645C9B6A34background) white" stroke-width="3"/>          <path id="_02948A29-C006-4C73-B666-8B645C9B6A34frame" style="stroke-width:1.5;stroke-linecap:butt;stroke-linejoin:miter;stroke-miterlimit:10" stroke="#000000" fill="url(#_02948A29-C006-4C73-B666-8B645C9B6A34borderbackground)" d=" M20.820839 9.171502  L17.36734 22.58992  L11.54138 12.281818999999999  L7.3386512 18.071607  L11.048949 4.832305699999999  L16.996148 14.132659  L20.820839 9.171502  z"/> 	<text font-size="11" id="_02948A29-C006-4C73-B666-8B645C9B6A34text_name" x="14" y="30" oryx:align="top center" stroke="black" stroke-width="0pt" letter-spacing="-0.01px" fill="#000000" text-anchor="middle" transform="rotate(0 14 30)" visibility="inherit" oryx:fontSize="11"><tspan x="14" y="30" dy="11">End</tspan></text>   </g></g><g class="children" style="overflow:hidden"/><g class="edge"/></g><g class="controls"><g class="dockers"/><g class="magnets" transform="translate(296, 57)"><g pointer-events="all" display="none" transform="translate(6, 6)"><circle cx="8" cy="8" r="4" stroke="none" fill="red" fill-opacity="0.3"/></g></g></g></g><g id="_CC133745-952D-4B90-9F0E-6EE5B01E39B7" bpmn2nodeid="_44B1A01A-61F0-4885-B0F6-5FAEE205F299"><g class="stencils" transform="translate(130, 50)"><g class="me"><g pointer-events="fill" oryx:minimumSize="50 40" id="_CC133745-952D-4B90-9F0E-6EE5B01E39B7">   	<defs id="_CC133745-952D-4B90-9F0E-6EE5B01E39B7__CC133745-952D-4B90-9F0E-6EE5B01E39B7_17"> 		<radialGradient id="_CC133745-952D-4B90-9F0E-6EE5B01E39B7background" cx="10%" cy="10%" r="100%" fx="10%" fy="10%"> 			<stop offset="0%" stop-color="#ffffff" stop-opacity="1" id="_CC133745-952D-4B90-9F0E-6EE5B01E39B7__CC133745-952D-4B90-9F0E-6EE5B01E39B7_18"/> 			<stop id="_CC133745-952D-4B90-9F0E-6EE5B01E39B7fill_el" offset="100%" stop-color="#fafad2" stop-opacity="1"/> 		</radialGradient> 		<radialGradient id="_CC133745-952D-4B90-9F0E-6EE5B01E39B7borderbackground" cx="10%" cy="10%" r="100%" fx="10%" fy="10%"> 			<stop offset="0%" stop-color="#ffffff" stop-opacity="1" id="_CC133745-952D-4B90-9F0E-6EE5B01E39B7__CC133745-952D-4B90-9F0E-6EE5B01E39B7_19"/> 			<stop id="_CC133745-952D-4B90-9F0E-6EE5B01E39B7fill_border" offset="100%" stop-color="#000000" stop-opacity="1" stroke="#000000"/> 		</radialGradient> 	</defs> 	 	<rect id="_CC133745-952D-4B90-9F0E-6EE5B01E39B7text_frame" oryx:anchors="bottom top right left" x="1" y="1" width="104" height="49" rx="10" ry="10" stroke="none" stroke-width="0" fill="none"/> 	<rect id="_CC133745-952D-4B90-9F0E-6EE5B01E39B7bg_frame" oryx:resize="vertical horizontal" x="0" y="0" width="110.00000000000001" height="50" rx="10" ry="10" stroke="#000000" stroke-width="1" fill="url(#_CC133745-952D-4B90-9F0E-6EE5B01E39B7background) #ffffcc"/> 		<text font-size="12" id="_CC133745-952D-4B90-9F0E-6EE5B01E39B7text_name" x="55.00000000000001" y="25" oryx:align="middle center" oryx:fittoelem="text_frame" stroke="black" text-anchor="middle" stroke-width="0pt" letter-spacing="-0.01px" fill="#000000" transform="rotate(0 55.00000000000001 25)" visibility="inherit" oryx:fontSize="12"><tspan x="55.00000000000001" y="25" dy="5" id="ext-gen735">Task 1</tspan></text>     <g id="_CC133745-952D-4B90-9F0E-6EE5B01E39B7manualTask" transform="scale(0.7,0.7) translate(8,8)" display="none">     	<path oryx:anchors="top left" id="_CC133745-952D-4B90-9F0E-6EE5B01E39B7frame" style="opacity:1;fill:none;fill-opacity:1;stroke-width:1" d="M0.5,3.751l4.083-3.25c0,0,11.166,0.083,12.083,0.083s-2.417,2.917-1.5,2.917     s11.667,0,12.584,0c1.166,1.708-0.168,3.167-0.834,3.667s0.875,1.917-1,4.417c-0.75,0.25,0.75,1.875-1.333,3.333     c-1.167,0.583,0.583,1.542-1.25,2.833c-1.167,0-20.833,0.083-20.833,0.083l-2-1.333V3.751z" stroke="#000000"/> 		<path id="_CC133745-952D-4B90-9F0E-6EE5B01E39B7frame2" oryx:anchors="top left" style="opacity:1;fill:none;stroke-width:2" d="M 13.5 7 L 27 7" stroke="#000000"/> 		<path id="_CC133745-952D-4B90-9F0E-6EE5B01E39B7frame3" oryx:anchors="top left" style="opacity:1;fill:none;stroke-width:2" d="M 13.5 11 L 26 11" stroke="#000000"/> 		<path id="_CC133745-952D-4B90-9F0E-6EE5B01E39B7frame4" oryx:anchors="top left" style="opacity:1;fill:none;stroke-width:1.5" d="M 14 14.5 L 25 14.5" stroke="#000000"/> 		<path id="_CC133745-952D-4B90-9F0E-6EE5B01E39B7frame5" oryx:anchors="top left" style="opacity:1;fill:none;stroke-width:1.5" d="M 8.2 3.1 L 15 3.1" stroke="#000000"/> 	</g> 	 	<g id="_CC133745-952D-4B90-9F0E-6EE5B01E39B7businessRuleTask" transform="scale(0.7,0.7) translate(8,8)" display="none"> 		<rect id="_CC133745-952D-4B90-9F0E-6EE5B01E39B7frame6" oryx:anchors="top left" x="0" y="0" width="22" height="4" style="opacity:1;fill:#B3B1B3;fill-opacity:1;" stroke="#000000"/> 		<rect id="_CC133745-952D-4B90-9F0E-6EE5B01E39B7frame7" oryx:anchors="top left" x="0" y="4" style="opacity:1;fill:none;" width="22" height="12" stroke="#000000"/> 		<path id="_CC133745-952D-4B90-9F0E-6EE5B01E39B7frame8" oryx:anchors="top left" style="opacity:1;fill:none;" d="M 0 10 L 22 10" stroke="#000000"/> 		<path id="_CC133745-952D-4B90-9F0E-6EE5B01E39B7frame9" oryx:anchors="top left" style="opacity:1; fill:none;" d="M 7 4 L 7 16" stroke="#000000"/> 	</g> 	 	<g id="_CC133745-952D-4B90-9F0E-6EE5B01E39B7scriptTask" transform="scale(0.7,0.7) translate(8,8)" display="inherit"> 		<path oryx:anchors="top left" id="_CC133745-952D-4B90-9F0E-6EE5B01E39B7frame10" style="opacity:1;fill:none;" stroke="#000000" d="M6.402,0.5h14.5c0,0-5.833,2.833-5.833,5.583s4.417,6,4.417,9.167    s-4.167,5.083-4.167,5.083H0.235c0,0,5-2.667,5-5s-4.583-6.75-4.583-9.25S6.402,0.5,6.402,0.5z"/> 		<path oryx:anchors="top left" id="_CC133745-952D-4B90-9F0E-6EE5B01E39B7frame11" style="opacity:1;fill:none;stroke-width:1.5" d="M 3.5 4.5 L 13.5 4.5" stroke="#000000"/> 		<path oryx:anchors="top left" id="_CC133745-952D-4B90-9F0E-6EE5B01E39B7frame12" style="opacity:1;fill:none;stroke-width:1.5" d="M 3.8 8.5 L 13.8 8.5" stroke="#000000"/> 		<path oryx:anchors="top left" id="_CC133745-952D-4B90-9F0E-6EE5B01E39B7frame13" style="opacity:1;fill:none;stroke-width:1.5" d="M 6.3 12.5 L 16.3 12.5" stroke="#000000"/> 		<path oryx:anchors="top left" id="_CC133745-952D-4B90-9F0E-6EE5B01E39B7frame14" style="opacity:1;fill:none;stroke-width:1.5" d="M 6.5 16.5 L 16.5 16.5" stroke="#000000"/> 	</g> 	 	<g id="_CC133745-952D-4B90-9F0E-6EE5B01E39B7userTask" transform="scale(0.7,0.7) translate(8,8)" display="none"> 		<path id="_CC133745-952D-4B90-9F0E-6EE5B01E39B7frame15" oryx:anchors="top left" style="opacity:1;fill:#F4F6F7" stroke="#000000" d="M0.585,24.167h24.083v-7.833c0,0-2.333-3.917-7.083-5.167h-9.25    c-4.417,1.333-7.833,5.75-7.833,5.75L0.585,24.167z"/> 		<path id="_CC133745-952D-4B90-9F0E-6EE5B01E39B7frame16" oryx:anchors="top left" style="opacity:1;fill:none" d="M 6 20 L 6 24" stroke="#000000"/> 		<path id="_CC133745-952D-4B90-9F0E-6EE5B01E39B7frame17" oryx:anchors="top left" style="opacity:1;fill:none" d="M 20 20 L 20 24" stroke="#000000"/> 		<circle id="_CC133745-952D-4B90-9F0E-6EE5B01E39B7frame18" oryx:anchors="top left" fill="black" cx="13.002" cy="5.916" r="5.417" stroke="#000000"/> 		<path id="_CC133745-952D-4B90-9F0E-6EE5B01E39B7frame19" oryx:anchors="top left" style="opacity:1;fill:#F0EFF0;" stroke="#000000" d="M8.043,7.083c0,0,2.814-2.426,5.376-1.807s4.624-0.693,4.624-0.693    c0.25,1.688,0.042,3.75-1.458,5.584c0,0,1.083,0.75,1.083,1.5s0.125,1.875-1,3s-5.5,1.25-6.75,0S8.668,12.834,8.668,12    s0.583-1.25,1.25-1.917C8.835,9.5,7.419,7.708,8.043,7.083z"/> 	</g> 	 	<g id="_CC133745-952D-4B90-9F0E-6EE5B01E39B7serviceTask" transform="scale(0.7,0.7) translate(8,8)" display="none"> 		<polygon oryx:anchors="top left" id="_CC133745-952D-4B90-9F0E-6EE5B01E39B7frame20" style="opacity:1;fill:#ffffff" stroke="#000000" points="15.392,5.064 17.954,2.502 20.347,4.895 17.786,7.455     18.729,9.732 22.353,9.732 22.353,13.115 18.731,13.115 17.788,15.392 20.351,17.955 17.958,20.347 15.397,17.786 13.12,18.729     13.12,22.353 9.737,22.353 9.737,18.731 7.46,17.788 4.897,20.35 2.506,17.958 5.066,15.397 4.124,13.12 0.5,13.12 0.5,9.737     4.121,9.737 5.065,7.461 2.503,4.898 4.895,2.506 7.455,5.066 9.732,4.125 9.732,0.5 13.116,0.5 13.116,4.121 "/> 		<circle oryx:anchors="top left" id="_CC133745-952D-4B90-9F0E-6EE5B01E39B7frame21" style="opacity:1;fill:none" stroke="#000000" cx="11.427" cy="11.426" r="3.714"/> 		<polygon oryx:anchors="top left" id="_CC133745-952D-4B90-9F0E-6EE5B01E39B7frame22" style="opacity:1;fill:#ffffff" stroke="#000000" points="21.392,11.064 23.954,8.502 26.347,10.895 23.786,13.455     24.729,15.732 28.353,15.732 28.353,19.115 24.731,19.115 23.788,21.392 26.351,23.955 23.958,26.347 21.397,23.786 19.12,24.729     19.12,28.353 15.737,28.353 15.737,24.731 13.46,23.788 10.897,26.35 8.506,23.958 11.066,21.397 10.124,19.12 6.5,19.12     6.5,15.737 10.121,15.737 11.065,13.461 8.503,10.898 10.895,8.506 13.455,11.066 15.732,10.125 15.732,6.5 19.116,6.5     19.116,10.121 "/> 		<circle oryx:anchors="top left" id="_CC133745-952D-4B90-9F0E-6EE5B01E39B7frame23" style="opacity:1;fill:none;" stroke="#000000" cx="17.427" cy="17.426" r="3.714"/> 	</g> 	 	<g id="_CC133745-952D-4B90-9F0E-6EE5B01E39B7sendTask" display="none"> 		<path id="_CC133745-952D-4B90-9F0E-6EE5B01E39B7stframe24" oryx:anchors="left top" stroke="#FFFFFF" fill="black" stroke-width="1" d="M8,11 L8,21 L24,21 L24,11 L16,17z"/> 		<path id="_CC133745-952D-4B90-9F0E-6EE5B01E39B7stframe25" oryx:anchors="left top" stroke="#FFFFFF" fill="black" stroke-width="1" d="M7,10 L16,17 L25 10z"/> 	</g> 	 	<g id="_CC133745-952D-4B90-9F0E-6EE5B01E39B7receiveTask" display="none"> 		<path id="_CC133745-952D-4B90-9F0E-6EE5B01E39B7frame26" oryx:anchors="left top" stroke="#000000" fill="none" stroke-width="1" d="M8,11 L8,21 L24,21 L24,11z M8,11 L16,17 L24,11"/> 	</g> 	 	<g id="_CC133745-952D-4B90-9F0E-6EE5B01E39B7none" display="none"/>  	<g id="_CC133745-952D-4B90-9F0E-6EE5B01E39B7sequential" display="none">         <path oryx:anchors="bottom" fill="none" stroke="#000000" stroke-width="2" d=" M51.1 46  h10  M51.1 42  h10  M51.1 38  h10 " id="_CC133745-952D-4B90-9F0E-6EE5B01E39B7__CC133745-952D-4B90-9F0E-6EE5B01E39B7_20"/>     </g>   </g></g><g class="children" style="overflow:hidden"/><g class="edge"/></g><g class="controls"><g class="dockers"/><g class="magnets" transform="translate(130, 50)"><g pointer-events="all" display="none" transform="translate(-7, 4.5)"><circle cx="8" cy="8" r="4" stroke="none" fill="red" fill-opacity="0.3"/></g><g pointer-events="all" display="none" transform="translate(-7, 17)"><circle cx="8" cy="8" r="4" stroke="none" fill="red" fill-opacity="0.3"/></g><g pointer-events="all" display="none" transform="translate(-7, 29.5)"><circle cx="8" cy="8" r="4" stroke="none" fill="red" fill-opacity="0.3"/></g><g pointer-events="all" display="none" transform="translate(19.500000000000004, 41)"><circle cx="8" cy="8" r="4" stroke="none" fill="red" fill-opacity="0.3"/></g><g pointer-events="all" display="none" transform="translate(47.00000000000001, 41)"><circle cx="8" cy="8" r="4" stroke="none" fill="red" fill-opacity="0.3"/></g><g pointer-events="all" display="none" transform="translate(74.5, 41)"><circle cx="8" cy="8" r="4" stroke="none" fill="red" fill-opacity="0.3"/></g><g pointer-events="all" display="none" transform="translate(101, 4.5)"><circle cx="8" cy="8" r="4" stroke="none" fill="red" fill-opacity="0.3"/></g><g pointer-events="all" display="none" transform="translate(101, 17)"><circle cx="8" cy="8" r="4" stroke="none" fill="red" fill-opacity="0.3"/></g><g pointer-events="all" display="none" transform="translate(101, 29.5)"><circle cx="8" cy="8" r="4" stroke="none" fill="red" fill-opacity="0.3"/></g><g pointer-events="all" display="none" transform="translate(19.500000000000004, -7)"><circle cx="8" cy="8" r="4" stroke="none" fill="red" fill-opacity="0.3"/></g><g pointer-events="all" display="none" transform="translate(47.00000000000001, -7)"><circle cx="8" cy="8" r="4" stroke="none" fill="red" fill-opacity="0.3"/></g><g pointer-events="all" display="none" transform="translate(74.5, -7)"><circle cx="8" cy="8" r="4" stroke="none" fill="red" fill-opacity="0.3"/></g><g pointer-events="all" display="none" transform="translate(47.00000000000001, 17)"><circle cx="8" cy="8" r="4" stroke="none" fill="red" fill-opacity="0.3"/></g></g></g></g></g><g class="edge"><g id="_82923E60-599B-4F21-A2DE-69073B5BEB4E" bpmn2nodeid="_45DD2E3A-B03A-44C2-B662-2DE8BF08D154"><g class="stencils"><g class="me"><g pointer-events="painted" bpmn2nodeid="_8B54FECE-3C0D-470E-99E0-B5543A75217B"><path id="_82923E60-599B-4F21-A2DE-69073B5BEB4E_1" d="M240.68698839288075 73.21801637142782L295.3286366071192 71.46948362857218 " stroke="#000000" fill="none" stroke-width="2" stroke-linecap="round" stroke-linejoin="round" marker-start="url(#_82923E60-599B-4F21-A2DE-69073B5BEB4Estart)" marker-end="url(#_82923E60-599B-4F21-A2DE-69073B5BEB4Eend)"/></g><text id="_82923E60-599B-4F21-A2DE-69073B5BEB4Etext_name" font-size="12" x="254.68698839288075" y="59.21801637142782" oryx:edgePosition="startTop" stroke-width="0pt" letter-spacing="-0.01px" fill="#000000" text-anchor="start" transform="rotate(358.16716049405795 240.68698839288075 73.21801637142782)" visibility="inherit" oryx:fontSize="12"/></g><g class="children" style="overflow:hidden"/><g class="edge"/></g><g class="controls"><g class="dockers"/><g class="magnets"/></g></g><g id="_923B5F64-D118-4463-BB1A-DF27CE02324D" bpmn2nodeid="_5D5426FC-3D55-4D9E-BA6D-4CE99CF66750"><g class="stencils"><g class="me"><g pointer-events="painted" bpmn2nodeid="_693B353D-5407-483C-AD20-70011A7879C2"><path id="_923B5F64-D118-4463-BB1A-DF27CE02324D_1" d="M80.06218764640812 72.37655469116021L129.62531235359188 73.61563280883979 " stroke="#000000" fill="none" stroke-width="2" stroke-linecap="round" stroke-linejoin="round" marker-start="url(#_923B5F64-D118-4463-BB1A-DF27CE02324Dstart)" marker-end="url(#_923B5F64-D118-4463-BB1A-DF27CE02324Dend)"/></g><text id="_923B5F64-D118-4463-BB1A-DF27CE02324Dtext_name" font-size="12" x="94.06218764640812" y="58.37655469116021" oryx:edgePosition="startTop" stroke-width="0pt" letter-spacing="-0.01px" fill="#000000" text-anchor="start" transform="rotate(1.4320961841646067 80.06218764640812 72.37655469116021)" visibility="inherit" oryx:fontSize="12"/></g><g class="children" style="overflow:hidden"/><g class="edge"/></g><g class="controls"><g class="dockers"/><g class="magnets"/></g></g></g><text id="_3683FE4B-C038-4B9F-A9B6-1B7976B78999" style="stroke-width:1;fill:rgb(177,194,214);font-family:arial;font-weight:bold" font-size="12" onclick="ORYX.Plugins.CanvasTitle.openTextualAnalysis()" onmouseover="ORYX.Plugins.CanvasTitle.addToolTip('_3683FE4B-C038-4B9F-A9B6-1B7976B78999')" transform="translate(10, 20)">Sub process v.1 (subprocess)</text><text id="_3683FE4B-C038-4B9F-A9B6-1B7976B78999" style="stroke-width:1;fill:rgb(177,194,214);font-family:arial;font-weight:bold" font-size="12" onclick="ORYX.Plugins.CanvasTitle.openTextualAnalysis()" onmouseover="ORYX.Plugins.CanvasTitle.addToolTip('_3683FE4B-C038-4B9F-A9B6-1B7976B78999')" transform="translate(10, 20)">Sub process v.1 (subprocess)</text></g></g></svg>